<svg xmlns="http://www.w3.org/2000/svg" viewBox="0 0 69 30"><defs><style>.cls-1{fill:#fff;}.cls-2{fill:red;}</style></defs><g id="Réteg_2" data-name="Réteg 2"><g id="Layer_1" data-name="Layer 1"><path class="cls-1" d="M53.51,30a26.75,26.75,0,0,0-38,0L0,14.39a48.55,48.55,0,0,1,69,0Z"/><path class="cls-2" d="M15.6,12.76l2.85-1.22a2.2,2.2,0,0,1,1.73-.14,1.3,1.3,0,0,1,.74.75h0a1.43,1.43,0,0,1-.33,1.62,1.47,1.47,0,0,1,1.68.9h0c.4,1-.13,1.88-1.46,2.45L18,18.37ZM19,13.94c.47-.2.67-.47.53-.8v0c-.13-.3-.44-.38-.9-.18l-1,.43.41,1Zm1.12,2c.47-.21.66-.5.52-.83v0c-.13-.3-.45-.4-1-.18l-1.18.5.44,1Z"/><path class="cls-2" d="M46.09,15.51l1.27-.72a3.11,3.11,0,0,0,1.58,1.38c.42.16.7.1.79-.15h0c.08-.24-.05-.44-.75-.91-1.11-.73-1.91-1.43-1.47-2.6v0c.4-1.05,1.52-1.5,2.88-1a3.79,3.79,0,0,1,2,1.64l-1.2.82a2.92,2.92,0,0,0-1.37-1.16c-.38-.15-.63-.06-.71.15h0c-.1.27.05.45.77.93,1.19.77,1.85,1.5,1.45,2.57v0c-.43,1.16-1.6,1.51-3,1A4.24,4.24,0,0,1,46.09,15.51Z"/><path class="cls-2" d="M33.66,8.4H31.85V6.92h5.3V8.4H35.34v8.16H33.66Z"/><polygon class="cls-2" points="41.27 13.86 40.18 11.92 42.11 10.83 43.2 12.77 41.27 13.86"/><polygon class="cls-2" points="27.54 13.86 28.62 11.92 26.69 10.83 25.61 12.77 27.54 13.86"/></g></g></svg>