<svg xmlns="http://www.w3.org/2000/svg" viewBox="0 0 750.61 354.48"><defs><style>.cls-1{fill:#e5e5e5;}.cls-2{fill:#fff;}.cls-3{fill:#7cae41;}.cls-4{fill:#228041;}.cls-5{fill:#dc9d41;}.cls-6{fill:#b1804e;}.cls-7{fill:#aa5841;}.cls-8{fill:#ff5841;}.cls-9{fill:red;}.cls-10{font-size:24px;fill:#ababab;font-family:Montserrat-Black, Montserrat;font-weight:800;letter-spacing:0.12em;}.cls-11{fill:#2b2b2b;}.cls-12{fill:#ffea41;}.cls-13{fill:#e9c424;}</style></defs><g id="Réteg_2" data-name="Réteg 2"><g id="Layer_1" data-name="Layer 1"><path class="cls-1" d="M636.45,179.92c-29.72,0-57.71-2.69-78.8-7.59-23.47-5.45-35.37-12.85-35.37-22s11.9-16.53,35.37-22c21.09-4.9,49.08-7.59,78.8-7.59s57.71,2.69,78.8,7.59c23.47,5.45,35.36,12.85,35.36,22s-11.89,16.54-35.36,22C694.16,177.23,666.17,179.92,636.45,179.92Zm0-51.15c-29.13,0-56.47,2.62-77,7.38-28.84,6.7-29.18,13.89-29.18,14.19s.34,7.5,29.18,14.2c20.52,4.76,47.86,7.38,77,7.38s56.47-2.62,77-7.38c28.84-6.7,29.17-13.89,29.17-14.2s-.33-7.49-29.17-14.19C692.92,131.39,665.58,128.77,636.45,128.77Z"/><path class="cls-2" d="M718,150.32s2.25-22.49,23.32-25.68c0,0,9.67,19-12.28,39.16"/><path class="cls-3" d="M729,167.8a4,4,0,0,1-2.71-7c14.69-13.52,13.78-26.11,12.4-31.56-14.86,4.36-16.73,21.25-16.75,21.43a4,4,0,1,1-8-.8c.88-8.85,7.61-26.34,26.7-29.24l2.85-.43,1.32,2.57c.45.89,10.77,21.92-13.15,43.92A4,4,0,0,1,729,167.8Z"/><path class="cls-2" d="M675.74,136.58s19.63-40.69,21-42.75a4.82,4.82,0,0,1,6-2c1.61.54,2.78,3.4,1.89,5.28s-13.76,37.38-14.35,40.78"/><path class="cls-4" d="M690.24,141.89a3.51,3.51,0,0,1-.72-.07,4,4,0,0,1-3.21-4.59c.68-3.92,13.25-38.38,14.59-41.62,0,0,0-.06,0-.09-.46,0-.61.17-.83.5-1.14,1.89-13.32,27-20.72,42.3a4,4,0,1,1-7.2-3.47c4.63-9.6,19.85-41.09,21.22-43.2A8.84,8.84,0,0,1,704,88.07a7.23,7.23,0,0,1,4.23,4.17,8.08,8.08,0,0,1,0,6.62c-1.1,2.46-13.4,36.63-14,39.77A4,4,0,0,1,690.24,141.89ZM701,95.42h0Z"/><path class="cls-2" d="M596.92,142.93s7.64-44.53,8.37-46.88a4.81,4.81,0,0,1,5.21-3.55c1.7.08,3.62,2.5,3.28,4.55s-2.92,39.73-2.55,43.16"/><path class="cls-4" d="M596.92,146.93a4,4,0,0,1-3.95-4.68c1.81-10.5,7.75-45,8.49-47.38a8.84,8.84,0,0,1,9.21-6.36,7.24,7.24,0,0,1,5.21,2.84,8.07,8.07,0,0,1,1.84,6.36c-.38,2.67-2.78,38.9-2.51,42.1a4,4,0,0,1-3.61,4.35,4,4,0,0,1-4.35-3.52c-.42-4,2.15-40.54,2.55-44a.36.36,0,0,0,0-.09c-.46.08-.54.33-.65.7-.57,2.14-5.37,29.6-8.25,46.39A4,4,0,0,1,596.92,146.93Z"/><path class="cls-2" d="M692,140s2.25-22.49,23.32-25.69c0,0,9.68,19-12.28,39.16"/><path class="cls-3" d="M703,157.46a4,4,0,0,1-2.71-6.94C715,137,714.09,124.43,712.69,119c-14.87,4.35-16.74,21.25-16.76,21.43a4,4,0,1,1-8-.8c.89-8.85,7.61-26.34,26.7-29.24l2.85-.43,1.32,2.57c.45.88,10.77,21.92-13.15,43.92A3.93,3.93,0,0,1,703,157.46Z"/><path class="cls-2" d="M703.23,148.58s2.25-22.49,23.32-25.69c0,0,9.67,19-12.28,39.16"/><path class="cls-3" d="M714.27,166.05a4,4,0,0,1-2.71-6.94c14.69-13.52,13.78-26.11,12.4-31.56-14.86,4.36-16.73,21.25-16.75,21.43a4,4,0,0,1-8-.8c.88-8.85,7.61-26.35,26.7-29.24l2.85-.43,1.32,2.57C730.57,122,740.89,143,717,165A4,4,0,0,1,714.27,166.05Z"/><path class="cls-2" d="M593.66,142.84s-14.14-17.63-1.34-34.67c0,0,20.18,6.76,18.66,36.56"/><path class="cls-3" d="M611,148.73h-.21a4,4,0,0,1-3.79-4.2c1-20-8.42-28.3-13.25-31.22-7.52,13.39,2.6,26.46,3.06,27.05a4,4,0,0,1-6.25,5c-5.56-6.93-13-24.13-1.42-39.57l1.74-2.31,2.73.92c.94.32,23,8.1,21.38,40.55A4,4,0,0,1,611,148.73Z"/><path class="cls-2" d="M678.62,130.61s-10.44-6-10.26-21"/><path class="cls-4" d="M678.62,134.61a4,4,0,0,1-2-.53c-.51-.29-12.47-7.38-12.27-24.56a4,4,0,0,1,4-4,4,4,0,0,1,4,4.05c-.15,12.54,8.18,17.48,8.26,17.53a4,4,0,0,1-2,7.46Z"/><path class="cls-2" d="M683.23,121.11s-8.61-2.77-6.28-17.26"/><path class="cls-4" d="M683.23,125.11a4,4,0,0,1-1.23-.19c-.48-.16-11.84-4-9-21.71a4,4,0,0,1,7.9,1.27c-1.73,10.8,3.5,12.81,3.56,12.82a4,4,0,0,1-1.23,7.81Z"/><path class="cls-2" d="M615.17,176.25h48a39.44,39.44,0,1,0-48,0Z"/><path class="cls-5" d="M609.08,176.25h13.46a35.44,35.44,0,1,1,33.28,0h13.46a43.44,43.44,0,1,0-60.2,0Z"/><path class="cls-2" d="M615.17,176.25h48a39.44,39.44,0,1,0-48,0Z"/><path class="cls-5" d="M609.08,176.25h13.46a35.44,35.44,0,1,1,33.28,0h13.46a43.44,43.44,0,1,0-60.2,0Z"/><line class="cls-2" x1="640.32" y1="118.51" x2="655.13" y2="4.48"/><rect class="cls-6" x="586.23" y="57.5" width="122.99" height="8" transform="translate(503.31 695.9) rotate(-82.6)"/><path class="cls-2" d="M665.67,145a26.49,26.49,0,1,1-26.49-26.5A26.48,26.48,0,0,1,665.67,145Z"/><path class="cls-5" d="M639.18,175.46A30.49,30.49,0,1,1,669.67,145,30.52,30.52,0,0,1,639.18,175.46Zm0-53A22.49,22.49,0,1,0,661.67,145,22.52,22.52,0,0,0,639.18,122.48Z"/><line class="cls-2" x1="643.32" y1="131.38" x2="671.49" y2="16.02"/><rect class="cls-6" x="594.03" y="69.7" width="126.75" height="8" transform="translate(429.81 694.84) rotate(-76.27)"/><path class="cls-2" d="M652.77,145a13.59,13.59,0,1,1-13.59-13.6A13.59,13.59,0,0,1,652.77,145Z"/><path class="cls-5" d="M639.18,162.57A17.6,17.6,0,1,1,656.77,145,17.61,17.61,0,0,1,639.18,162.57Zm0-27.19a9.6,9.6,0,1,0,9.59,9.6A9.6,9.6,0,0,0,639.18,135.38Z"/><path class="cls-2" d="M660,162.19c0,7.51-9,13.6-20.17,13.6s-20.17-6.09-20.17-13.6,9-13.59,20.17-13.59S660,154.68,660,162.19Z"/><path class="cls-5" d="M625.17,176.25h29.36c5.8-3.19,9.49-8.25,9.49-14.06,0-9.86-10.62-17.59-24.17-17.59s-24.17,7.73-24.17,17.59C615.68,168,619.37,173.06,625.17,176.25Zm14.68-23.65c8.61,0,16.17,4.48,16.17,9.59s-7.56,9.6-16.17,9.6-16.17-4.49-16.17-9.6S631.24,152.6,639.85,152.6Z"/><path class="cls-2" d="M673.9,176.85c8.92-.33,17.9-2.34,26.7-3.8,3.15-.52,6.32-1.08,9.44-1.81,1.24-.54,2.47-1.07,3.71-1.59a39.44,39.44,0,0,0-78.12,7.72q0,.63,0,1.26C647.16,173.94,662,177.3,673.9,176.85Z"/><path class="cls-5" d="M635.52,178.68a29,29,0,0,1,4.11-1.33,35.43,35.43,0,0,1,70.34-6.1H710c2.49-1.08,5-2.15,7.47-3.13a43.44,43.44,0,0,0-85.88,9.26c0,.44,0,.88,0,1.32Z"/><path class="cls-2" d="M673.9,176.85c8.92-.33,17.9-2.34,26.7-3.8,3.15-.52,6.32-1.08,9.44-1.81,1.24-.54,2.47-1.07,3.71-1.59a39.44,39.44,0,0,0-78.12,7.72q0,.63,0,1.26C647.16,173.94,662,177.3,673.9,176.85Z"/><path class="cls-5" d="M635.52,178.68a29,29,0,0,1,4.11-1.33,35.43,35.43,0,0,1,70.34-6.1H710c2.49-1.08,5-2.15,7.47-3.13a43.44,43.44,0,0,0-85.88,9.26c0,.44,0,.88,0,1.32Z"/><path class="cls-2" d="M673.9,176.85c8.92-.33,17.9-2.34,26.7-3.8l.59-.1a26.49,26.49,0,0,0-52.58,3.22C657.12,175.83,666.12,177.14,673.9,176.85Z"/><path class="cls-5" d="M652.62,176.11a22.48,22.48,0,0,1,44.62-2.48l3.36-.58c1.5-.25,3-.51,4.52-.79a30.48,30.48,0,0,0-60.52,4.2A64.36,64.36,0,0,1,652.62,176.11Z"/><path class="cls-2" d="M673.9,176.85a114.66,114.66,0,0,0,14.57-1.67,13.58,13.58,0,0,0-27,1.3C665.81,176.74,670,177,673.9,176.85Z"/><path class="cls-5" d="M665.51,176.71a9.58,9.58,0,0,1,19-.91c2.64-.39,5.27-.84,7.89-1.31a17.57,17.57,0,0,0-34.88,1.78C660.22,176.4,662.89,176.57,665.51,176.71Z"/><path class="cls-5" d="M671.79,176.89a3.31,3.31,0,0,1,6.49-.34l1.36-.13a4.65,4.65,0,0,0-9.19.46Z"/><path class="cls-2" d="M653,177.94a39.46,39.46,0,0,0-39-33.72l33.72,33.72Z"/><path class="cls-5" d="M614,148.22a35.5,35.5,0,0,1,35,29.72H657A43.5,43.5,0,0,0,614,140.22a4,4,0,0,0,0,8Z"/><path class="cls-2" d="M653,177.94a39.46,39.46,0,0,0-39-33.72l33.72,33.72Z"/><path class="cls-5" d="M614,148.22a35.5,35.5,0,0,1,35,29.72H657A43.5,43.5,0,0,0,614,140.22a4,4,0,0,0,0,8Z"/><path class="cls-2" d="M639.84,177.94A26.48,26.48,0,0,0,614,157.17l20.77,20.77Z"/><path class="cls-5" d="M614,161.17a22.53,22.53,0,0,1,21.75,16.77h8.19A30.52,30.52,0,0,0,614,153.17a4,4,0,0,0,0,8Z"/><path class="cls-2" d="M630.77,177.94a14.93,14.93,0,0,0-13.31-8.16l8.16,8.16Z"/><path class="cls-7" d="M617.46,173.78a10.93,10.93,0,0,1,8.58,4.16h9.1a19,19,0,0,0-17.68-12.16,4,4,0,0,0,0,8Z"/><path class="cls-2" d="M561.82,131.35c8.42-11.82,7.87-11.07,10.82-16.6l27.55,16.46c-7.94,21.29-7.89,21.15-14.67,39.35"/><path class="cls-8" d="M589.27,172l-7.49-2.8.75-2,12.75-34.2-21.1-12.6c-1.52,2.68-3,4.8-9.1,13.34L558.57,129c7.71-10.83,7.71-10.83,10-15.14l2.52-4.73,34,20.32-1.16,3.12L590,169.92Z"/><path class="cls-2" d="M531.82,155.53s6.44-17.18,21.1-28.62L579.4,143s-8.23,14.31-8.59,26.48"/><path class="cls-8" d="M574.81,169.6l-8-.23c.28-9.39,4.72-19.66,7.3-24.89L553.27,131.8c-12.09,10.52-17.65,25-17.71,25.14l-7.49-2.81c.28-.74,7-18.37,22.39-30.37l2.18-1.7,32.17,19.56L582.87,145C582.79,145.14,575.13,158.61,574.81,169.6Z"/><path class="cls-1" d="M636.45,179.92c-29.72,0-57.71-2.69-78.8-7.59-23.47-5.45-35.37-12.85-35.37-22h8c0,.31.34,7.5,29.18,14.2,20.52,4.76,47.86,7.38,77,7.38s56.47-2.62,77-7.38c28.84-6.7,29.17-13.89,29.17-14.2h8c0,9.14-11.89,16.54-35.36,22C694.16,177.23,666.17,179.92,636.45,179.92Z"/><path class="cls-2" d="M606.67,157.91a6.5,6.5,0,1,1-6.49-6.49A6.5,6.5,0,0,1,606.67,157.91Z"/><path class="cls-7" d="M600.18,168.41a10.5,10.5,0,1,1,10.49-10.5A10.51,10.51,0,0,1,600.18,168.41Zm0-13a2.5,2.5,0,1,0,2.49,2.49A2.5,2.5,0,0,0,600.18,155.42Z"/><path class="cls-2" d="M615.15,147.09a6.5,6.5,0,1,1-6.5-6.49A6.5,6.5,0,0,1,615.15,147.09Z"/><path class="cls-7" d="M608.65,157.59a10.5,10.5,0,1,1,10.5-10.5A10.51,10.51,0,0,1,608.65,157.59Zm0-13a2.5,2.5,0,1,0,2.5,2.49A2.5,2.5,0,0,0,608.65,144.6Z"/><path class="cls-2" d="M621.64,160.08a6.5,6.5,0,1,1-6.49-6.49A6.5,6.5,0,0,1,621.64,160.08Z"/><path class="cls-7" d="M615.15,170.58a10.5,10.5,0,1,1,10.49-10.5A10.51,10.51,0,0,1,615.15,170.58Zm0-13a2.5,2.5,0,1,0,2.49,2.49A2.5,2.5,0,0,0,615.15,157.59Z"/><path class="cls-2" d="M629.27,149.26a6.5,6.5,0,1,1-6.5-6.5A6.5,6.5,0,0,1,629.27,149.26Z"/><path class="cls-7" d="M622.77,159.75a10.5,10.5,0,1,1,10.5-10.49A10.51,10.51,0,0,1,622.77,159.75Zm0-13a2.5,2.5,0,1,0,2.5,2.5A2.5,2.5,0,0,0,622.77,146.76Z"/><path class="cls-2" d="M646.44,170.16a6.5,6.5,0,1,1-6.5-6.5A6.49,6.49,0,0,1,646.44,170.16Z"/><path class="cls-7" d="M639.94,180.65a10.5,10.5,0,1,1,10.5-10.49A10.5,10.5,0,0,1,639.94,180.65Zm0-13a2.5,2.5,0,1,0,2.5,2.5A2.5,2.5,0,0,0,639.94,167.66Z"/><path class="cls-2" d="M633.45,166.58a6.5,6.5,0,1,1-6.5-6.5A6.5,6.5,0,0,1,633.45,166.58Z"/><path class="cls-7" d="M627,177.07a10.5,10.5,0,1,1,10.5-10.49A10.5,10.5,0,0,1,627,177.07Zm0-13a2.5,2.5,0,1,0,2.5,2.5A2.5,2.5,0,0,0,627,164.08Z"/><path class="cls-2" d="M612,170.32a6.49,6.49,0,1,1-6.49-6.5A6.48,6.48,0,0,1,612,170.32Z"/><path class="cls-7" d="M605.49,180.81A10.5,10.5,0,1,1,616,170.32,10.49,10.49,0,0,1,605.49,180.81Zm0-13a2.5,2.5,0,1,0,2.49,2.5A2.49,2.49,0,0,0,605.49,167.82Z"/><path class="cls-2" d="M598.39,168.06a3.65,3.65,0,1,1-3.65-3.65A3.66,3.66,0,0,1,598.39,168.06Z"/><path class="cls-7" d="M594.74,175.71a7.65,7.65,0,1,1,7.65-7.65A7.66,7.66,0,0,1,594.74,175.71Zm0-8a.35.35,0,1,0,0,.7.35.35,0,0,0,0-.7Z"/><path class="cls-1" d="M636.45,265.26a114.32,114.32,0,0,1-114.17-114.2h8a106.17,106.17,0,1,0,212.33,0h8A114.31,114.31,0,0,1,636.45,265.26Z"/><path class="cls-2" d="M698.75,165.49s4.26,6.84,2.81,18.17a24.09,24.09,0,0,0,5.17,18.48"/><path class="cls-5" d="M706.72,206.14a4,4,0,0,1-2.92-1.28,28.16,28.16,0,0,1-6.21-21.71c1.23-9.61-2.11-15.34-2.26-15.58a4,4,0,0,1,6.82-4.2c.2.33,5,8.21,3.38,20.8a20,20,0,0,0,4.16,15.28,4,4,0,0,1-3,6.69Z"/><rect class="cls-9" x="375.87" y="178.83" width="50" height="12"/><rect class="cls-9" x="375.87" y="158.82" width="50" height="12"/><text class="cls-10" transform="translate(545.05 348) scale(0.96 1)">RAMEN SOUP</text><text class="cls-10" transform="translate(50.14 348) scale(0.96 1)">GERMKNÖDL</text><path class="cls-11" d="M256.06,183.25A2.89,2.89,0,0,1,255,183l-1.25-.5a3,3,0,1,1,2.23-5.57l1.25.5a3,3,0,0,1-1.12,5.79Z"/><path class="cls-1" d="M142.66,235.44C73.5,235.44,0,222.17,0,197.57s73.5-37.86,142.66-37.86S285.31,173,285.31,197.57,211.81,235.44,142.66,235.44Zm0-68.53c-36.86,0-71.48,3.53-97.47,9.93-28,6.9-38,15.24-38,20.73s10,13.83,38,20.73c26,6.41,60.61,9.93,97.47,9.93s71.47-3.52,97.46-9.93c28-6.9,38-15.23,38-20.73s-10-13.83-38-20.73C214.13,170.44,179.52,166.91,142.66,166.91Z"/><path class="cls-2" d="M142.66,223c-22.3,0-60-3.52-60-16.7s37.72-16.7,60-16.7,60,3.52,60,16.7S165,223,142.66,223Zm-52.79-16.7c1.56,3.38,20.67,9.5,52.79,9.5s51.22-6.12,52.78-9.5c-1.56-3.38-20.67-9.5-52.78-9.5S91.43,202.94,89.87,206.32Z"/><path class="cls-2" d="M248,195.1c0,13.51-46.36,24.47-103.56,24.47s-103.55-11-103.55-24.47,46.36-24.46,103.55-24.46S248,181.59,248,195.1Z"/><path class="cls-12" d="M144.41,223.17c-53.24,0-107.15-9.64-107.15-28.07S91.17,167,144.41,167s107.16,9.64,107.16,28.06S197.66,223.17,144.41,223.17Zm0-48.93c-27.38,0-53.09,2.51-72.39,7.07-21.75,5.14-27.56,11.09-27.56,13.79s5.81,8.66,27.56,13.79c19.29,4.56,45,7.07,72.39,7.07s53.1-2.51,72.4-7.07c21.75-5.13,27.56-11.08,27.56-13.79s-5.81-8.65-27.56-13.79C197.51,176.75,171.8,174.24,144.41,174.24Z"/><path class="cls-1" d="M141.82,251.25c-31.77,0-40.67-4-41.58-4.44l-1.15-.58-6-13.38,6.59-2.92,4.8,10.8c3,.93,13.19,3.32,37.29,3.32,24.25,0,34.37-2.42,37.38-3.35l4.78-9.56,6.44,3.22-5.95,11.91-1.08.54C182.48,247.26,173.59,251.25,141.82,251.25Z"/><path class="cls-2" d="M188.37,176c0,25-28.61,29.74-63.9,29.74S60.56,201,60.56,176s28.61-45.35,63.91-45.35S188.37,150.91,188.37,176Z"/><path class="cls-13" d="M124.47,209.3C91.09,209.3,57,205.34,57,176c0-27,30.29-49,67.51-49S192,149,192,176C192,205.34,157.85,209.3,124.47,209.3Zm0-75.09c-33.25,0-60.3,18.73-60.3,41.75,0,18.56,17.47,26.14,60.3,26.14s60.3-7.58,60.3-26.14C184.77,152.94,157.72,134.21,124.47,134.21Z"/><path class="cls-11" d="M115.3,142.32a3.62,3.62,0,0,1-2.55-1l-.9-.9a3.6,3.6,0,1,1,5.1-5.09l.9.9a3.6,3.6,0,0,1-2.55,6.14Z"/><path class="cls-11" d="M135.11,134.21h-.3a3.61,3.61,0,0,1,0-7.21h.3a3.61,3.61,0,0,1,0,7.21Z"/><path class="cls-11" d="M100.6,135.72A3.6,3.6,0,0,1,97.5,134l-.9-1.51a3.6,3.6,0,0,1,6.19-3.69l.9,1.52a3.6,3.6,0,0,1-1.26,4.93A3.5,3.5,0,0,1,100.6,135.72Z"/><path class="cls-11" d="M152.52,148.33a3.5,3.5,0,0,1-1.14-.19l-.9-.3a3.6,3.6,0,1,1,2.28-6.83l.9.3a3.6,3.6,0,0,1-1.14,7Z"/><path class="cls-11" d="M138.64,158.53a3.55,3.55,0,0,1-2.53-1l-1.73-1.71a3.6,3.6,0,0,1,5.06-5.12l1.73,1.71a3.59,3.59,0,0,1,0,5.09A3.55,3.55,0,0,1,138.64,158.53Z"/><path class="cls-11" d="M99.69,157.68h-1.5a3.61,3.61,0,0,1,0-7.21h1.5a3.61,3.61,0,0,1,0,7.21Z"/><path class="cls-11" d="M116.8,173.84a3.6,3.6,0,0,1-3.6-3.6v-2.09a3.6,3.6,0,0,1,7.2,0v2.09A3.6,3.6,0,0,1,116.8,173.84Z"/><path class="cls-11" d="M180.81,175.34a3.6,3.6,0,0,1-3.6-3.6v-1.5a3.61,3.61,0,0,1,7.21,0v1.5A3.61,3.61,0,0,1,180.81,175.34Z"/><path class="cls-11" d="M256.63,183.25a2.89,2.89,0,0,1-1.11-.22l-1.25-.5A3,3,0,1,1,256.5,177l1.25.5a3,3,0,0,1-1.12,5.79Z"/><path class="cls-11" d="M121.9,134.21a3.6,3.6,0,0,1-3.6-3.6v-1.79a3.61,3.61,0,0,1,7.21,0v1.79A3.61,3.61,0,0,1,121.9,134.21Z"/><path class="cls-11" d="M159.06,141.42a3.51,3.51,0,0,1-1.44-.3l-2-.89a3.6,3.6,0,1,1,2.88-6.6l2,.89a3.6,3.6,0,0,1-1.44,6.9Z"/><path class="cls-11" d="M87.69,165.14a3.61,3.61,0,0,1-3.61-3.61v-.9a3.61,3.61,0,0,1,7.21,0v.9A3.61,3.61,0,0,1,87.69,165.14Z"/><path class="cls-11" d="M65.77,161.61a3.61,3.61,0,0,1-3.07-5.49l.34-.54a3.6,3.6,0,0,1,6.13,3.77l-.33.54A3.59,3.59,0,0,1,65.77,161.61Z"/><path class="cls-11" d="M147.42,186.75a3.6,3.6,0,0,1-3.22-2l-.3-.6a3.6,3.6,0,0,1,6.44-3.23l.3.6a3.61,3.61,0,0,1-1.61,4.84A3.72,3.72,0,0,1,147.42,186.75Z"/><path class="cls-11" d="M247.38,202.75a3,3,0,0,1-3-3v-.5a3,3,0,0,1,6,0v.5A3,3,0,0,1,247.38,202.75Z"/><path class="cls-11" d="M76.58,216.16A3.6,3.6,0,0,1,73,213.07l-.3-2.1a3.61,3.61,0,0,1,7.14-1l.3,2.1a3.61,3.61,0,0,1-3.06,4.08A4.49,4.49,0,0,1,76.58,216.16Z"/><path class="cls-11" d="M73.68,152.23a3.59,3.59,0,0,1-1.53-.34l-1.9-.9a3.6,3.6,0,1,1,3.06-6.52l1.9.9a3.6,3.6,0,0,1-1.53,6.86Z"/><path class="cls-11" d="M87.69,150.23a3.65,3.65,0,0,1-1-.13l-1.44-.4a3.6,3.6,0,1,1,1.92-6.94l1.45.4a3.6,3.6,0,0,1-1,7.07Z"/></g></g></svg>