<svg xmlns="http://www.w3.org/2000/svg" viewBox="0 0 784.21 266.78"><defs><style>.cls-1{fill:#e5e5e5;}.cls-2{fill:red;}.cls-3,.cls-4{font-size:24px;fill:#ababab;font-family:Montserrat-Black, Montserrat;font-weight:800;}.cls-3{letter-spacing:0.12em;}.cls-4{letter-spacing:0.12em;}.cls-5{fill:#3f8e00;}.cls-6{fill:#802600;}.cls-7{fill:#b2a792;}.cls-8{fill:#fff;}</style></defs><g id="Réteg_2" data-name="Réteg 2"><g id="Layer_1" data-name="Layer 1"><path class="cls-1" d="M3.24,117,0,110.55c36.59-18.43,91.93-29,151.83-29,47.92,0,93.77,6.9,129.11,19.42l-2.41,6.79c-34.58-12.26-79.57-19-126.7-19C93,88.74,38.86,99,3.24,117Z"/><path class="cls-1" d="M781,122C745.34,104,691.18,93.74,632.37,93.74c-47.12,0-92.12,6.75-126.69,19L503.27,106c35.33-12.52,81.18-19.42,129.1-19.42,59.9,0,115.24,10.58,151.84,29Z"/><rect class="cls-2" x="373.89" y="91.12" width="50" height="12"/><rect class="cls-2" x="373.89" y="71.12" width="50" height="12"/><text class="cls-3" transform="translate(594.77 260.3) scale(0.96 1)">BIRCH</text><text class="cls-4" transform="translate(55.16 255.29) scale(0.96 1)">PINE TREES</text><polygon class="cls-5" points="93.95 120 63.84 87.73 33.72 120 27.87 114.54 63.84 76.01 99.8 114.54 93.95 120"/><polygon class="cls-5" points="93.95 141.39 63.84 109.13 33.72 141.39 27.87 135.94 63.84 97.4 99.8 135.94 93.95 141.39"/><polygon class="cls-5" points="141.45 75.87 111.33 43.6 81.22 75.87 75.37 70.41 111.33 31.88 147.3 70.41 141.45 75.87"/><polygon class="cls-5" points="141.45 97.26 111.33 64.99 81.22 97.26 75.37 91.8 111.33 53.27 147.3 91.8 141.45 97.26"/><polygon class="cls-5" points="226.95 65.39 196.84 33.12 166.73 65.39 160.88 59.93 196.84 21.39 232.8 59.93 226.95 65.39"/><polygon class="cls-5" points="226.95 86.78 196.84 54.51 166.73 86.78 160.88 81.32 196.84 42.78 232.8 81.32 226.95 86.78"/><polygon class="cls-5" points="264.45 170.38 234.34 138.1 204.23 170.38 198.38 164.92 234.34 126.38 270.3 164.92 264.45 170.38"/><polygon class="cls-5" points="264.45 191.77 234.34 159.5 204.23 191.77 198.38 186.31 234.34 147.77 270.3 186.31 264.45 191.77"/><rect class="cls-6" x="59.83" y="65.13" width="8" height="90"/><rect class="cls-6" x="107.33" y="20.61" width="8" height="91.54"/><rect class="cls-6" x="230.34" y="116.08" width="8" height="90.06"/><rect class="cls-7" x="567.16" y="32.09" width="8" height="90.06"/><rect class="cls-7" x="656.84" y="73.74" width="8" height="90.06"/><rect class="cls-7" x="718.17" y="33.11" width="8" height="90.06"/><rect class="cls-7" x="610.84" y="121.08" width="8" height="90.06"/><rect class="cls-6" x="192.84" y="11.63" width="8" height="86.86"/><polygon class="cls-5" points="93.95 98.61 63.84 66.34 33.72 98.61 27.87 93.15 63.84 54.61 99.8 93.15 93.95 98.61"/><polygon class="cls-5" points="141.45 54.48 111.33 22.21 81.22 54.48 75.37 49.02 111.33 10.48 147.3 49.02 141.45 54.48"/><polygon class="cls-5" points="226.95 44 196.84 11.73 166.73 44 160.88 38.54 196.84 0 232.8 38.54 226.95 44"/><polygon class="cls-5" points="264.45 148.98 234.34 116.71 204.23 148.98 198.38 143.53 234.34 104.99 270.3 143.53 264.45 148.98"/><path class="cls-8" d="M595.71,24.67a25.41,25.41,0,1,1-32-16.32A25.41,25.41,0,0,1,595.71,24.67Z"/><path class="cls-1" d="M571.56,61.54a29,29,0,1,1,27.58-38h0a29,29,0,0,1-27.58,38Zm0-50.84a21.82,21.82,0,1,0,20.72,15.08A21.85,21.85,0,0,0,571.57,10.7Z"/><path class="cls-8" d="M690.52,75.85a31.21,31.21,0,1,1-39.32-20A31.21,31.21,0,0,1,690.52,75.85Z"/><path class="cls-1" d="M660.8,120.31a34.82,34.82,0,1,1,33.14-45.58h0a34.86,34.86,0,0,1-33.14,45.58Zm0-62.43a27.7,27.7,0,0,0-8.51,1.35A27.61,27.61,0,1,0,687.09,77h0A27.65,27.65,0,0,0,660.82,57.88Z"/><path class="cls-8" d="M601,56.39a17.35,17.35,0,1,1-17.35-17.34A17.35,17.35,0,0,1,601,56.39Z"/><path class="cls-1" d="M583.68,77.34a20.95,20.95,0,1,1,21-21A21,21,0,0,1,583.68,77.34Zm0-34.69a13.75,13.75,0,1,0,13.75,13.74A13.76,13.76,0,0,0,583.68,42.65Z"/><path class="cls-8" d="M632.18,127.39a17.35,17.35,0,1,1-17.34-17.34A17.34,17.34,0,0,1,632.18,127.39Z"/><path class="cls-1" d="M614.84,148.34a20.95,20.95,0,1,1,20.94-21A21,21,0,0,1,614.84,148.34Zm0-34.69a13.75,13.75,0,1,0,13.74,13.74A13.77,13.77,0,0,0,614.84,113.65Z"/><path class="cls-8" d="M747.13,39.05A22.1,22.1,0,1,1,725,17,22.1,22.1,0,0,1,747.13,39.05Z"/><path class="cls-1" d="M725,64.75a25.7,25.7,0,1,1,25.7-25.7A25.73,25.73,0,0,1,725,64.75Zm0-44.2a18.5,18.5,0,1,0,18.5,18.5A18.51,18.51,0,0,0,725,20.55Z"/><path class="cls-8" d="M562.63,51a13.88,13.88,0,1,1-17.49-8.91A13.89,13.89,0,0,1,562.63,51Z"/><path class="cls-1" d="M549.41,72.82a17.48,17.48,0,1,1,16.64-22.89h0a17.49,17.49,0,0,1-11.22,22A17.79,17.79,0,0,1,549.41,72.82Zm0-27.76a10.27,10.27,0,1,0,9.78,7.1A10.28,10.28,0,0,0,549.42,45.06Z"/><path class="cls-8" d="M735.37,60.05a13.88,13.88,0,1,1-17.49-8.91A13.88,13.88,0,0,1,735.37,60.05Z"/><path class="cls-1" d="M722.18,81.82a17.48,17.48,0,1,1,16.61-22.88,17.49,17.49,0,0,1-16.61,22.88Zm0-27.76a10,10,0,0,0-3.16.51,10.28,10.28,0,1,0,12.94,6.6A10.29,10.29,0,0,0,722.16,54.06Z"/><rect class="cls-7" x="640.61" y="83.59" width="8" height="15.42" transform="translate(98.47 445.69) rotate(-41.04)"/><rect class="cls-7" x="531.54" y="41.57" width="8" height="15.42" transform="translate(276.66 520.68) rotate(-66.48)"/><rect class="cls-7" x="735.81" y="37.26" width="20.27" height="8" transform="translate(8.95 163.64) rotate(-12.59)"/><rect class="cls-7" x="679.38" y="63.92" width="15.34" height="8" transform="translate(114.72 454.05) rotate(-39.65)"/></g></g></svg>