<svg xmlns="http://www.w3.org/2000/svg" viewBox="0 0 815.07 303.21"><defs><style>.cls-1{fill:red;}.cls-2{font-size:24px;fill:#ababab;font-family:Montserrat-Black, Montserrat;font-weight:800;letter-spacing:0.1em;}.cls-3{fill:#e5e5e5;}.cls-4{fill:#c8c8c8;}.cls-5{fill:#fff;}.cls-6{fill:#dc9d41;}.cls-7{fill:#565656;}.cls-8{fill:#8ab1c8;}.cls-9{fill:#e53910;}.cls-10{fill:#746163;}.cls-11{fill:#40a1a7;}</style></defs><g id="Réteg_2" data-name="Réteg 2"><g id="Layer_1" data-name="Layer 1"><rect class="cls-1" x="394.17" y="127.55" width="50" height="12"/><rect class="cls-1" x="394.17" y="107.55" width="50" height="12"/><text class="cls-2" transform="translate(611.72 296.73) scale(0.96 1)">ONSEN</text><text class="cls-2" transform="translate(111.02 296.72) scale(0.96 1)">SAUNA</text><path class="cls-3" d="M3.6,195.18,0,188c39.56-19.94,99.4-31.37,164.16-31.37,51.81,0,101.38,7.46,139.58,21l-2.68,7.54c-37.36-13.24-86-20.53-136.9-20.53C100.61,164.66,42.08,175.78,3.6,195.18Z"/><path class="cls-4" d="M811.59,179.8c-38.8-18.77-97.48-28.93-161-27.92-50.92.83-99.41,8.91-136.56,22.76l-2.79-7.5c38-14.15,87.41-22.41,139.22-23.25,64.73-1.08,124.76,9.41,164.64,28.7Z"/><rect class="cls-5" x="87.42" y="74.18" width="44.61" height="116.34"/><path class="cls-6" d="M136,194.52H83.42V70.18H136Zm-44.61-8H128V78.18H91.42Z"/><rect class="cls-5" x="132.03" y="74.18" width="101.81" height="116.34"/><path class="cls-6" d="M237.84,194.52H128V70.18H237.84Zm-101.81-8h93.81V78.18H136Z"/><rect class="cls-7" x="103.63" y="52.37" width="11.35" height="18.57"/><path class="cls-3" d="M109.31,45A9.68,9.68,0,1,1,119,35.34,9.69,9.69,0,0,1,109.31,45Zm0-11.35A1.68,1.68,0,1,0,111,35.34,1.68,1.68,0,0,0,109.31,33.67Z"/><path class="cls-3" d="M120.12,19.35a9.68,9.68,0,1,1,9.67-9.68A9.69,9.69,0,0,1,120.12,19.35Zm0-11.35a1.68,1.68,0,1,0,1.67,1.67A1.68,1.68,0,0,0,120.12,8Z"/><line class="cls-5" x1="101.47" y1="126.77" x2="101.47" y2="190.52"/><rect class="cls-6" x="97.47" y="126.77" width="8" height="63.75"/><line class="cls-5" x1="117.14" y1="126.77" x2="117.14" y2="190.52"/><rect class="cls-6" x="113.14" y="126.77" width="8" height="63.75"/><rect class="cls-5" x="101.47" y="90.2" width="15.67" height="22.87"/><path class="cls-8" d="M121.14,117.07H97.47V86.2h23.67Zm-15.67-8h7.67V94.2h-7.67Z"/><line class="cls-5" x1="132.03" y1="74.18" x2="132.03" y2="190.52"/><path class="cls-6" d="M132,194.52a4,4,0,0,1-4-4V74.18a4,4,0,0,1,8,0V190.52A4,4,0,0,1,132,194.52Z"/><line class="cls-5" x1="146.91" y1="126.77" x2="146.91" y2="190.52"/><rect class="cls-6" x="142.91" y="126.77" width="8" height="63.75"/><line class="cls-5" x1="161.8" y1="126.77" x2="161.8" y2="190.52"/><rect class="cls-6" x="157.8" y="126.77" width="8" height="63.75"/><line class="cls-5" x1="176.69" y1="126.77" x2="176.69" y2="190.52"/><rect class="cls-6" x="172.69" y="126.77" width="8" height="63.75"/><line class="cls-5" x1="191.57" y1="74.18" x2="191.57" y2="190.52"/><rect class="cls-6" x="187.57" y="74.18" width="8" height="116.34"/><line class="cls-5" x1="206.46" y1="148.75" x2="206.46" y2="190.52"/><rect class="cls-6" x="202.46" y="148.75" width="8" height="41.78"/><line class="cls-5" x1="221.34" y1="74.18" x2="221.34" y2="190.52"/><rect class="cls-6" x="217.34" y="74.18" width="8" height="116.34"/><rect class="cls-5" x="146.91" y="88.21" width="29.77" height="95.83"/><path class="cls-8" d="M180.69,188H142.91V84.21h37.78Zm-29.78-8h21.78V92.21H150.91Z"/><line class="cls-5" x1="150.82" y1="138.3" x2="173.16" y2="138.3"/><rect class="cls-6" x="150.82" y="134.3" width="22.34" height="8"/><line class="cls-5" x1="206.46" y1="106.95" x2="206.46" y2="132.89"/><rect class="cls-8" x="202.46" y="106.95" width="8" height="25.94"/><path class="cls-9" d="M206.46,144.82a8,8,0,1,1,8-8A8,8,0,0,1,206.46,144.82Zm0-8Z"/><rect class="cls-9" x="202.46" y="116.68" width="8" height="20.18"/><line class="cls-5" x1="206.46" y1="72.02" x2="206.46" y2="101.91"/><rect class="cls-6" x="202.46" y="72.02" width="8" height="29.89"/><path class="cls-5" d="M601.42,92.63a16.83,16.83,0,0,0-16.84,16.83v58.27h33.67V109.46A16.83,16.83,0,0,0,601.42,92.63Z"/><path class="cls-10" d="M622.25,171.73H580.58V109.46a20.84,20.84,0,0,1,41.67,0Zm-33.67-8h25.67V109.46a12.84,12.84,0,0,0-25.67,0Z"/><path class="cls-5" d="M693,130a11.57,11.57,0,0,0-11.57,11.57v27.15h23.14V141.58A11.57,11.57,0,0,0,693,130Z"/><path class="cls-10" d="M708.61,172.73H677.47V141.58a15.57,15.57,0,0,1,31.14,0Zm-23.14-8h15.14V141.58a7.57,7.57,0,0,0-15.14,0Z"/><path class="cls-5" d="M731.23,178.27c0,10.76-32.47,19.48-72.52,19.48s-72.52-8.72-72.52-19.48,32.47-19.47,72.52-19.47S731.23,167.52,731.23,178.27Z"/><path class="cls-11" d="M658.71,201.75c-19.71,0-38.29-2.08-52.31-5.84-16.06-4.32-24.21-10.25-24.21-17.64s8.15-13.31,24.21-17.63c14-3.76,32.6-5.84,52.31-5.84S697,156.88,711,160.64c16.06,4.32,24.21,10.25,24.21,17.63s-8.15,13.32-24.21,17.64C697,199.67,678.42,201.75,658.71,201.75Zm0-38.95c-44.33,0-68.52,10.22-68.52,15.47s24.19,15.48,68.52,15.48,68.52-10.22,68.52-15.48S703,162.8,658.71,162.8Z"/><path class="cls-3" d="M663.5,215.78v-8c22.17,0,43-2.85,58.53-8,20.44-6.79,22-14,22-16.07h8C752.05,204.54,706.43,215.78,663.5,215.78Z"/><path class="cls-5" d="M584.58,149.9a16.82,16.82,0,0,0-16.83,16.83v28.13l33.67,8.52V166.73A16.83,16.83,0,0,0,584.58,149.9Z"/><path class="cls-10" d="M605.42,208.52,563.75,198V166.73a20.84,20.84,0,0,1,41.67,0Zm-33.67-16.78,25.67,6.5V166.73a12.84,12.84,0,0,0-25.67,0Z"/><path class="cls-5" d="M541.72,193.06s49-5,79.26,22.34"/><path class="cls-4" d="M618.29,218.37C589.74,192.53,542.59,197,542.12,197l-.81-8c2.07-.21,51.13-4.9,82.35,23.35Z"/><line class="cls-5" x1="614.43" y1="180.09" x2="625.92" y2="180.09"/><rect class="cls-11" x="614.43" y="176.09" width="11.49" height="8"/><path class="cls-5" d="M704.61,117.42a11.19,11.19,0,1,1-11.19-11.19A11.19,11.19,0,0,1,704.61,117.42Z"/><path class="cls-10" d="M693.42,132.61a15.19,15.19,0,1,1,15.19-15.19A15.21,15.21,0,0,1,693.42,132.61Zm0-22.38a7.19,7.19,0,1,0,7.19,7.19A7.19,7.19,0,0,0,693.42,110.23Z"/><path class="cls-3" d="M641.49,119.65h-8A23.66,23.66,0,0,1,636,108.48a18.08,18.08,0,0,0,0-15.73,23.69,23.69,0,0,1-2.52-11.17A23.7,23.7,0,0,1,636,70.4a15.93,15.93,0,0,0,1.8-7.86h8a23.66,23.66,0,0,1-2.52,11.17,16,16,0,0,0-1.8,7.87,16,16,0,0,0,1.8,7.86,23.69,23.69,0,0,1,2.52,11.17,23.66,23.66,0,0,1-2.52,11.17A16,16,0,0,0,641.49,119.65Z"/><path class="cls-3" d="M656.32,124.25h-8a23.7,23.7,0,0,1,2.52-11.18,18,18,0,0,0,0-15.72,23.7,23.7,0,0,1-2.52-11.18h8A16,16,0,0,0,658.13,94a23.66,23.66,0,0,1,2.52,11.17,23.69,23.69,0,0,1-2.52,11.17A16,16,0,0,0,656.32,124.25Z"/><path class="cls-3" d="M722.35,105.21h-8a15.93,15.93,0,0,0-1.8-7.86A23.7,23.7,0,0,1,710,86.17,23.69,23.69,0,0,1,712.55,75a15.93,15.93,0,0,0,1.8-7.86h8a23.71,23.71,0,0,1-2.51,11.17A16,16,0,0,0,718,86.17,16,16,0,0,0,719.84,94,23.67,23.67,0,0,1,722.35,105.21Z"/><path class="cls-3" d="M627.14,61.46h-8a16.07,16.07,0,0,0-1.8-7.86,23.57,23.57,0,0,1-2.52-11.17,23.53,23.53,0,0,1,2.52-11.17,16.08,16.08,0,0,0,1.8-7.87h8a23.7,23.7,0,0,1-2.52,11.18,15.93,15.93,0,0,0-1.8,7.86,16,16,0,0,0,1.8,7.86A23.69,23.69,0,0,1,627.14,61.46Z"/><line class="cls-5" x1="638.21" y1="170.72" x2="649.7" y2="170.72"/><rect class="cls-11" x="638.21" y="166.72" width="11.49" height="8"/><line class="cls-5" x1="678.2" y1="178.27" x2="689.69" y2="178.27"/><rect class="cls-11" x="678.2" y="174.27" width="11.49" height="8"/></g></g></svg>