<svg xmlns="http://www.w3.org/2000/svg" viewBox="0 0 845.6 236.77"><defs><style>.cls-1{fill:red;}.cls-2{font-size:24px;fill:#ababab;font-family:Montserrat-Black, Montserrat;font-weight:800;letter-spacing:0.1em;}.cls-3{fill:#c8c8c8;}.cls-4{fill:#aae5e5;}</style></defs><g id="Réteg_2" data-name="Réteg 2"><g id="Layer_1" data-name="Layer 1"><rect class="cls-1" x="378.94" y="61.11" width="50" height="12"/><rect class="cls-1" x="378.94" y="41.11" width="50" height="12"/><text class="cls-2" transform="translate(445.9 230.29) scale(0.96 1)">VOLCANOES OF HOKKAIDO </text><text class="cls-2" transform="translate(0 230.29) scale(0.96 1)">PEAKS OF THE ALPS</text><rect class="cls-3" x="18.68" y="95.13" width="73.05" height="8" transform="translate(-58.25 97.38) rotate(-60)"/><polygon class="cls-3" points="234.22 132.76 203.46 79.49 189.51 103.66 169.78 69.5 176.71 65.5 189.51 87.66 203.46 63.49 241.15 128.76 234.22 132.76"/><polygon class="cls-3" points="234.22 132.76 203.46 79.49 189.51 103.66 168.03 66.46 179.69 46.28 186.61 50.28 177.27 66.46 189.51 87.66 203.46 63.49 241.15 128.76 234.22 132.76"/><rect class="cls-3" x="246.8" y="41.91" width="8" height="95.23" transform="translate(-11.16 137.39) rotate(-30)"/><path class="cls-4" d="M138.9,81.22c-29.78,0-37-10.44-37.76-11.64l-1.24-2L138.9,0l39,67.56-1.24,2C175.93,70.78,168.68,81.22,138.9,81.22ZM109.56,66.81c3.13,2.3,11.23,6.41,29.34,6.41s26.21-4.11,29.34-6.41L138.9,16Z"/><path class="cls-4" d="M89,77.72c-15.46,0-18.93-7.89-19.28-8.79l-.68-1.78L89,32.58l20,34.57-.69,1.78C107.94,69.83,104.47,77.72,89,77.72ZM78.31,67.1c1.48,1.13,4.58,2.62,10.7,2.62s9.22-1.49,10.7-2.61L89,48.58Z"/><path class="cls-4" d="M203.86,62.26c-9.33,0-16.26-2-20.58-6.06a12.17,12.17,0,0,1-4.12-7.63l-.09-1.22,26-45,26.26,45.49-.52,1.67C230.64,50,226.53,62.26,203.86,62.26ZM187.47,48.81c1.21,2.29,5.62,5.45,16.39,5.45,12.13,0,16.85-3.84,18.52-5.95l-17.31-30Z"/><polygon class="cls-3" points="124.44 148.23 104.55 113.78 84.66 148.23 77.73 144.23 104.55 97.78 131.37 144.23 124.44 148.23"/><path class="cls-3" d="M776,122.67c-16-3.4-38.18-10.3-53.34-23.86C706.29,84.18,699.06,76.06,689.32,62a13.26,13.26,0,0,1-3.46,4.41,12.76,12.76,0,0,1-7.28,2.82C675.89,74.57,669,86,659.24,86s-17.68-10.62-20.74-15.3H615.81c-7.88,0-12.72-7.07-15.32-12.7-9.1,10.17-21.24,23.64-33.69,37.12-12,13-32.44,21.48-60.78,25.21l-1-7.93c18.17-2.4,42.62-8.28,55.94-22.7,14.57-15.79,28.73-31.55,38.05-42l4.4-4.94,2.46,6.6c.89,3.46,4.66,13.34,10,13.34H643l1.16,2c2,3.44,9,13.29,15,13.29,5.3,0,11.15-9.71,13.16-14.41l1.27-3,3.2.63h0a5.45,5.45,0,0,0,4-1c1.63-1.38,2.49-4.24,2.49-8.26V38.66l7.34,11c12.4,18.66,18.8,26.59,37.3,43.15,10.81,9.67,28.45,17.48,49.68,22Z"/><path class="cls-3" d="M711.76,118.28c-18.6-9.07-38.45-49.67-39.28-51.39l7.2-3.49c5.36,11.05,22.21,41.16,35.59,47.69Z"/><path class="cls-3" d="M634.15,106.87l-7.69-2.23c4-13.78,8.08-38,8.12-38.25l7.89,1.32C642.3,68.72,638.26,92.63,634.15,106.87Z"/><path class="cls-4" d="M659.24,86c-9.67,0-17.68-10.62-20.74-15.3H615.81c-12,0-16.93-16.36-17.67-19.12l-.78-2.07L599,47.69c8.58-9.62,14.19-16,14.24-16.07l1.2-1.36h20.8c2.22-8.09,5.9-16.42,11.68-16.42a13.68,13.68,0,0,0,1.47-.15c6.06-.77,17.35-2.22,34.87,24.68,2.74,4.2,5.18,7.93,7.44,11.33l.66,1v1.21c0,6.64-1.84,11.51-5.47,14.49a12.76,12.76,0,0,1-7.28,2.82C675.89,74.57,669,86,659.24,86Zm-52.8-34.65c1.47,4.27,4.86,11.35,9.37,11.35H643l1.16,2c2,3.44,9,13.29,15,13.29,5.3,0,11.15-9.71,13.16-14.41l1.27-3,3.2.63h0a5.45,5.45,0,0,0,4-1c1.47-1.25,2.31-3.69,2.47-7.09-2.07-3.13-4.31-6.55-6.78-10.35C661.75,20,653.7,21.08,649.38,21.63c-.65.08-1.27.16-1.9.19-1.47,1.44-3.9,7.57-5.27,13.36l-.73,3.08H618C616.1,40.44,612,45.12,606.44,51.34Z"/><rect class="cls-3" x="568.96" y="130.58" width="56.89" height="8"/><rect class="cls-3" x="647.62" y="147.91" width="68.52" height="8"/></g></g></svg>