<svg xmlns="http://www.w3.org/2000/svg" viewBox="0 0 290.23 50"><defs><style>.cls-1{fill:#fff;}.cls-2{fill:#959595;}</style></defs><g id="Réteg_2" data-name="Réteg 2"><g id="Layer_1" data-name="Layer 1"><path class="cls-1" d="M50,25A25,25,0,1,1,25,0,25,25,0,0,1,50,25Z"/><path class="cls-2" d="M42.27,28.9H34.42a7.44,7.44,0,0,1-5.53-3.18c-1.62-2.45-1.55-5.8.21-9.94l1.47.63C29,20,28.91,22.86,30.22,24.84a5.92,5.92,0,0,0,4.2,2.46h7.85Z"/><path class="cls-2" d="M16.22,28.9H7.73V27.3h6.88a12.85,12.85,0,0,1,4.84-8.67C24.19,14.7,30,15.06,33.88,15.68l-.25,1.58c-3.62-.57-8.92-.92-13.16,2.61a10.91,10.91,0,0,0-4.29,8.19Z"/><path class="cls-1" d="M110.06,25a25,25,0,1,1-25-25A25,25,0,0,1,110.06,25Z"/><path class="cls-2" d="M82.9,41l-.48-.84c-2-3.45-3-11.83-3-18A16.81,16.81,0,0,1,84.54,9.65l.52-.44.51.44a16.81,16.81,0,0,1,5.15,12.53c0,6.13-1.06,14.51-3,18l-.48.84-2.16-1.85Zm2.16-4,1.68,1.44c1.5-3.55,2.38-10.78,2.38-16.28a15.8,15.8,0,0,0-4.06-10.8A15.89,15.89,0,0,0,81,22.18c0,5.5.89,12.73,2.39,16.28Z"/><path class="cls-1" d="M170.12,25a25,25,0,1,1-25-25A25,25,0,0,1,170.12,25Z"/><path class="cls-2" d="M159.25,35.26H133.94V13.7h13.27V23.91l7.31,1.21a6.9,6.9,0,0,1,5.59,6.77,6.79,6.79,0,0,1-.64,2.91Zm-23.71-1.6h22.67a5.3,5.3,0,0,0-4-7l-8.62-1.43v-10H135.54Z"/><rect class="cls-2" x="140.49" y="18.76" width="5.92" height="1.6"/><rect class="cls-2" x="134.74" y="32.22" width="24.42" height="1.6"/><path class="cls-1" d="M230.17,25a25,25,0,1,1-25-25A25,25,0,0,1,230.17,25Z"/><polygon class="cls-2" points="221.22 27.28 198.3 27.28 189.24 18.23 190.37 17.09 198.96 25.68 221.22 25.68 221.22 27.28"/><rect class="cls-2" x="192.74" y="29.48" width="7.5" height="1.6" transform="translate(89.83 198.06) rotate(-66.31)"/><rect class="cls-2" x="214.09" y="26.3" width="1.6" height="7.24" transform="translate(1.53 69.31) rotate(-18.39)"/><rect class="cls-2" x="200.16" y="10.11" width="4.43" height="1.6" transform="translate(33.14 122.41) rotate(-36.46)"/><rect class="cls-2" x="205.03" y="13.99" width="4.43" height="1.6" transform="translate(110.74 198.79) rotate(-66.41)"/><rect class="cls-2" x="212.6" y="13.51" width="1.6" height="4.43" transform="translate(-0.42 24.02) rotate(-6.44)"/><path class="cls-1" d="M290.23,25a25,25,0,1,1-25-25A25,25,0,0,1,290.23,25Z"/><path class="cls-2" d="M274.78,37.43h-19.1V11.74h19.1Zm-17.5-1.6h15.9V13.34h-15.9Z"/><path class="cls-2" d="M265.23,21.45a2.91,2.91,0,1,1,2.91-2.91A2.91,2.91,0,0,1,265.23,21.45Zm0-4.21a1.31,1.31,0,1,0,1.31,1.3A1.31,1.31,0,0,0,265.23,17.24Z"/><path class="cls-2" d="M265.23,34.45a6,6,0,1,1,6-6A6.06,6.06,0,0,1,265.23,34.45Zm0-10.49a4.45,4.45,0,1,0,4.45,4.45A4.46,4.46,0,0,0,265.23,24Z"/></g></g></svg>