<svg xmlns="http://www.w3.org/2000/svg" viewBox="0 0 272 273"><defs><style>.cls-1{fill:#d6d6d6;}.cls-2{fill:red;}.cls-3{fill:#fff;}.cls-4{fill:#ababab;}</style></defs><g id="Réteg_2" data-name="Réteg 2"><g id="Layer_1" data-name="Layer 1"><path class="cls-1" d="M272,136.5C272,211.89,211.11,273,136,273S0,211.89,0,136.5,60.89,0,136,0,272,61.12,272,136.5Z"/><path class="cls-2" d="M98.77,31.75l1.13-2.43a3.19,3.19,0,0,0,2.63.55c1-.31,1.47-1.12,1-2.56l-2.42-8,2.78-.85,2.46,8.1a4.75,4.75,0,0,1-.16,3.66,4.63,4.63,0,0,1-2.86,2.13A5.28,5.28,0,0,1,98.77,31.75Z"/><path class="cls-2" d="M112.8,16.41l2.58-.46L123.1,27.8l-2.92.52-1.66-2.64-5.37,1-.65,3.06-2.85.52Zm4.28,7-2.43-3.83L113.71,24Z"/><path class="cls-2" d="M125.21,14.71l5.27-.25c3.07-.15,5,1.59,5.14,4.23v0c.14,3-2.1,4.65-5,4.79l-2.15.1.18,3.88-2.83.14ZM130.6,21a2,2,0,0,0,2.15-2.07v0c-.06-1.28-1-1.92-2.39-1.85l-2.19.1.19,3.95Z"/><path class="cls-2" d="M138.8,20.7v0a6.85,6.85,0,0,1,13.65,1.14v0A6.86,6.86,0,0,1,138.8,20.7Zm10.7.92v0A3.92,3.92,0,0,0,146,17.2a3.86,3.86,0,0,0-4.2,3.68v0a3.92,3.92,0,0,0,3.54,4.38A3.86,3.86,0,0,0,149.5,21.62Z"/><path class="cls-2" d="M156.55,15.74l2.94.76.42,9.15,5-7.8,2.35.61.62,9.25,4.76-7.83,2.88.74L168,32.15l-2.39-.62-.72-8.92L160,30.08l-2.39-.62Z"/><path class="cls-2" d="M67.17,221.77l4.24,3.15c2.47,1.83,2.88,4.41,1.31,6.54l0,0c-1.78,2.41-4.56,2.27-6.89.54l-1.73-1.29-2.3,3.12-2.28-1.69Zm.22,8.28a2,2,0,0,0,3-.23l0,0c.75-1,.45-2.1-.69-2.95l-1.76-1.31-2.35,3.18Z"/><path class="cls-2" d="M73.56,234.52l0,0a6.86,6.86,0,0,1,12,6.67l0,0a6.86,6.86,0,0,1-12-6.66Zm9.38,5.24,0,0a3.93,3.93,0,0,0-1.44-5.46,3.84,3.84,0,0,0-5.33,1.63l0,0a4,4,0,0,0,1.44,5.46A3.84,3.84,0,0,0,82.94,239.76Z"/><path class="cls-2" d="M89.29,236.06l2.86,1-.47,9.15,5.7-7.28,2.29.84-.28,9.26,5.49-7.32,2.79,1L99.1,253.5l-2.32-.84.15-9-5.62,7L89,249.82Z"/><path class="cls-2" d="M109.74,243l4.94.93c4,.76,6.21,4,5.54,7.6v0c-.67,3.57-3.94,5.83-7.93,5.08l-4.93-.94Zm3,11.12a3.67,3.67,0,0,0,4.53-3.07v0a3.71,3.71,0,0,0-3.1-4.55l-2.15-.41-1.44,7.66Z"/><path class="cls-2" d="M124.05,245.42l9.71.62-.16,2.52-6.9-.43-.16,2.62,6.06.38-.15,2.53-6.07-.39-.17,2.72,7,.44L133,259l-9.79-.63Z"/><path class="cls-2" d="M136.55,246.05l5.88-.32a5.16,5.16,0,0,1,3.83,1.11,4.11,4.11,0,0,1,1.26,2.89v0a4,4,0,0,1-2.54,4.16l3.39,4.44-3.31.18-3-4-2.23.12.22,4.14-2.83.15Zm6,6c1.38-.08,2.13-.86,2.07-2v0c-.07-1.22-.95-1.8-2.33-1.73l-2.81.15.2,3.71Z"/><path class="cls-2" d="M156.8,250.66v0a6.94,6.94,0,0,1,10.4-7.3l-1.27,2.45a4.76,4.76,0,0,0-3.55-.66,3.84,3.84,0,0,0-2.71,4.79v0a3.84,3.84,0,0,0,4.58,3.09,4.66,4.66,0,0,0,2.94-2.27l2.18,1.37a6.6,6.6,0,0,1-4.61,3.47A6.51,6.51,0,0,1,156.8,250.66Z"/><path class="cls-2" d="M173.23,239.19l2.45-.94,9.78,10.2-2.77,1.06-2.13-2.29-5.09,1.95-.07,3.13-2.7,1Zm5.49,6-3.09-3.3-.11,4.53Z"/><path class="cls-2" d="M182.72,235.47l2.67-1.49,5.61,3.15.33-6.44,2.67-1.48,6.24,11.32-2.46,1.37-4.08-7.39-.51,6.59-.06,0-5.78-3,4,7.34L189,246.79Z"/><path class="cls-2" d="M196.63,227.38l4.23-3.14c2.48-1.83,5-1.47,6.62.66l0,0c1.77,2.41.82,5-1.5,6.76L204.26,233l2.3,3.12-2.28,1.69Zm7.94,2.22a2,2,0,0,0,.65-2.91l0,0c-.75-1-1.87-1-3-.21l-1.76,1.31,2.34,3.18Z"/><rect class="cls-3" x="133.54" y="53.1" width="4.92" height="4.94"/><rect class="cls-3" x="113.84" y="53.1" width="4.92" height="4.94"/><rect class="cls-3" x="113.84" y="63.19" width="4.92" height="4.94"/><rect class="cls-3" x="94.14" y="63.19" width="4.92" height="4.94"/><rect class="cls-3" x="94.14" y="73.28" width="4.92" height="4.94"/><rect class="cls-3" x="94.14" y="83.37" width="4.92" height="4.94"/><rect class="cls-3" x="94.14" y="93.46" width="4.92" height="4.94"/><rect class="cls-3" x="94.14" y="103.55" width="4.92" height="4.94"/><rect class="cls-3" x="94.14" y="113.64" width="4.92" height="4.94"/><rect class="cls-3" x="94.14" y="123.73" width="4.92" height="4.94"/><rect class="cls-3" x="94.14" y="62.99" width="4.92" height="4.94"/><rect class="cls-3" x="94.14" y="52.69" width="4.92" height="4.94"/><rect class="cls-3" x="153.23" y="53.1" width="4.92" height="4.94"/><rect class="cls-3" x="153.23" y="63.19" width="4.92" height="4.94"/><rect class="cls-3" x="123.69" y="58.05" width="4.92" height="4.94"/><rect class="cls-3" x="123.69" y="47.75" width="4.92" height="4.94"/><rect class="cls-3" x="103.99" y="58.05" width="4.92" height="4.94"/><rect class="cls-3" x="103.99" y="68.14" width="4.92" height="4.94"/><rect class="cls-3" x="103.99" y="78.23" width="4.92" height="4.94"/><rect class="cls-3" x="103.99" y="88.32" width="4.92" height="4.94"/><rect class="cls-3" x="103.99" y="98.41" width="4.92" height="4.94"/><rect class="cls-3" x="103.99" y="108.5" width="4.92" height="4.94"/><rect class="cls-3" x="103.99" y="47.82" width="4.92" height="4.94"/><rect class="cls-3" x="74.45" y="73.28" width="4.92" height="4.94"/><rect class="cls-3" x="74.45" y="83.37" width="4.92" height="4.94"/><rect class="cls-3" x="74.45" y="93.46" width="4.92" height="4.94"/><rect class="cls-3" x="74.45" y="103.55" width="4.92" height="4.94"/><rect class="cls-3" x="74.45" y="113.64" width="4.92" height="4.94"/><rect class="cls-3" x="74.45" y="123.73" width="4.92" height="4.94"/><rect class="cls-3" x="74.45" y="133.82" width="4.92" height="4.94"/><rect class="cls-3" x="74.45" y="143.91" width="4.92" height="4.94"/><rect class="cls-3" x="74.45" y="154" width="4.92" height="4.94"/><rect class="cls-3" x="84.3" y="68.14" width="4.92" height="4.94"/><rect class="cls-3" x="84.3" y="78.23" width="4.92" height="4.94"/><rect class="cls-3" x="84.3" y="88.32" width="4.92" height="4.94"/><rect class="cls-3" x="84.3" y="98.41" width="4.92" height="4.94"/><rect class="cls-3" x="84.3" y="108.5" width="4.92" height="4.94"/><rect class="cls-3" x="84.3" y="118.59" width="4.92" height="4.94"/><rect class="cls-3" x="84.3" y="128.68" width="4.92" height="4.94"/><rect class="cls-3" x="84.3" y="138.77" width="4.92" height="4.94"/><rect class="cls-3" x="64.6" y="78.23" width="4.92" height="4.94"/><rect class="cls-3" x="54.75" y="64.64" width="4.92" height="4.94"/><rect class="cls-3" x="54.75" y="103.55" width="4.92" height="4.94"/><rect class="cls-3" x="54.75" y="113.64" width="4.92" height="4.94"/><rect class="cls-3" x="54.75" y="123.73" width="4.92" height="4.94"/><rect class="cls-3" x="54.75" y="133.82" width="4.92" height="4.94"/><rect class="cls-3" x="54.75" y="143.91" width="4.92" height="4.94"/><rect class="cls-3" x="54.75" y="154" width="4.92" height="4.94"/><rect class="cls-3" x="54.75" y="164.09" width="4.92" height="4.94"/><rect class="cls-3" x="54.75" y="174.18" width="4.92" height="4.94"/><rect class="cls-3" x="35.05" y="113.64" width="4.92" height="4.94"/><rect class="cls-3" x="64.6" y="88.32" width="4.92" height="4.94"/><rect class="cls-3" x="64.6" y="98.41" width="4.92" height="4.94"/><rect class="cls-3" x="64.6" y="108.5" width="4.92" height="4.94"/><rect class="cls-3" x="64.6" y="118.59" width="4.92" height="4.94"/><rect class="cls-3" x="64.6" y="128.68" width="4.92" height="4.94"/><rect class="cls-3" x="64.6" y="138.77" width="4.92" height="4.94"/><rect class="cls-3" x="64.6" y="148.85" width="4.92" height="4.94"/><rect class="cls-3" x="64.6" y="158.95" width="4.92" height="4.94"/><rect class="cls-3" x="64.6" y="169.03" width="4.92" height="4.94"/><rect class="cls-3" x="64.6" y="179.12" width="4.92" height="4.94"/><rect class="cls-3" x="44.9" y="128.68" width="4.92" height="4.94"/><rect class="cls-3" x="44.9" y="138.77" width="4.92" height="4.94"/><rect class="cls-3" x="44.9" y="148.85" width="4.92" height="4.94"/><rect class="cls-3" x="143.39" y="47.96" width="4.92" height="4.94"/><rect class="cls-3" x="143.39" y="58.05" width="4.92" height="4.94"/><rect class="cls-3" x="163.08" y="58.05" width="4.92" height="4.94"/><rect class="cls-3" x="163.08" y="68.14" width="4.92" height="4.94"/><rect class="cls-3" x="163.08" y="78.23" width="4.92" height="4.94"/><rect class="cls-3" x="163.08" y="88.32" width="4.92" height="4.94"/><rect class="cls-3" x="163.08" y="98.41" width="4.92" height="4.94"/><rect class="cls-3" x="163.08" y="108.5" width="4.92" height="4.94"/><rect class="cls-3" x="163.08" y="48.33" width="4.92" height="4.94"/><rect class="cls-3" x="172.93" y="62.99" width="4.92" height="4.94"/><rect class="cls-3" x="172.93" y="73.08" width="4.92" height="4.94"/><rect class="cls-3" x="172.93" y="83.17" width="4.92" height="4.94"/><rect class="cls-3" x="172.93" y="93.26" width="4.92" height="4.94"/><rect class="cls-3" x="172.93" y="103.35" width="4.92" height="4.94"/><rect class="cls-3" x="172.93" y="113.44" width="4.92" height="4.94"/><rect class="cls-3" x="172.93" y="123.53" width="4.92" height="4.94"/><rect class="cls-3" x="182.78" y="67.93" width="4.92" height="4.94"/><rect class="cls-3" x="182.78" y="78.02" width="4.92" height="4.94"/><rect class="cls-3" x="182.78" y="88.11" width="4.92" height="4.94"/><rect class="cls-3" x="182.78" y="98.2" width="4.92" height="4.94"/><rect class="cls-3" x="182.78" y="108.29" width="4.92" height="4.94"/><rect class="cls-3" x="182.78" y="118.38" width="4.92" height="4.94"/><rect class="cls-3" x="182.78" y="128.47" width="4.92" height="4.94"/><rect class="cls-3" x="182.78" y="138.56" width="4.92" height="4.94"/><rect class="cls-3" x="202.48" y="78.02" width="4.92" height="4.94"/><rect class="cls-3" x="222.17" y="78.02" width="4.92" height="4.94"/><rect class="cls-3" x="192.63" y="72.87" width="4.92" height="4.94"/><rect class="cls-3" x="192.63" y="82.96" width="4.92" height="4.94"/><rect class="cls-3" x="192.63" y="93.05" width="4.92" height="4.94"/><rect class="cls-3" x="192.63" y="103.14" width="4.92" height="4.94"/><rect class="cls-3" x="192.63" y="113.23" width="4.92" height="4.94"/><rect class="cls-3" x="192.63" y="123.32" width="4.92" height="4.94"/><rect class="cls-3" x="192.63" y="133.41" width="4.92" height="4.94"/><rect class="cls-3" x="192.63" y="143.5" width="4.92" height="4.94"/><rect class="cls-3" x="192.63" y="153.59" width="4.92" height="4.94"/><rect class="cls-3" x="202.48" y="88.32" width="4.92" height="4.94"/><rect class="cls-3" x="202.48" y="98.41" width="4.92" height="4.94"/><rect class="cls-3" x="202.48" y="108.5" width="4.92" height="4.94"/><rect class="cls-3" x="202.48" y="118.59" width="4.92" height="4.94"/><rect class="cls-3" x="202.48" y="128.68" width="4.92" height="4.94"/><rect class="cls-3" x="202.48" y="138.77" width="4.92" height="4.94"/><rect class="cls-3" x="202.48" y="148.85" width="4.92" height="4.94"/><rect class="cls-3" x="202.48" y="158.95" width="4.92" height="4.94"/><rect class="cls-3" x="202.48" y="169.03" width="4.92" height="4.94"/><rect class="cls-3" x="202.48" y="179.12" width="4.92" height="4.94"/><rect class="cls-3" x="222.17" y="128.68" width="4.92" height="4.94"/><rect class="cls-3" x="212.32" y="103.55" width="4.92" height="4.94"/><rect class="cls-3" x="212.32" y="113.64" width="4.92" height="4.94"/><rect class="cls-3" x="212.32" y="123.73" width="4.92" height="4.94"/><rect class="cls-3" x="212.32" y="133.82" width="4.92" height="4.94"/><rect class="cls-3" x="212.32" y="143.91" width="4.92" height="4.94"/><rect class="cls-3" x="212.32" y="154" width="4.92" height="4.94"/><rect class="cls-3" x="212.32" y="164.09" width="4.92" height="4.94"/><rect class="cls-3" x="212.32" y="174.18" width="4.92" height="4.94"/><rect class="cls-3" x="222.17" y="138.77" width="4.92" height="4.94"/><rect class="cls-3" x="222.17" y="148.85" width="4.92" height="4.94"/><rect class="cls-3" x="222.17" y="158.95" width="4.92" height="4.94"/><path class="cls-2" d="M148.34,108.45l-2.71-3.75a16.49,16.49,0,1,0-21.27-25.07,16.58,16.58,0,0,0,0,23.35,16.41,16.41,0,0,0,2,1.68l-2.72,3.75a21.21,21.21,0,0,1-2.5-32.06,21.11,21.11,0,0,1,29.8,29.91A21.17,21.17,0,0,1,148.34,108.45Z"/><polygon class="cls-3" points="78.93 178.06 74.89 175.25 136 86.98 197.11 174.83 193.07 177.66 136 95.63 78.93 178.06"/><path class="cls-3" d="M152.77,170.26c-13.31-36.49-40-44.07-41.15-44.38l-1.28,4.77c.06,0,6.87,1.94,15,8.43,6.8,5.39,15.83,15.06,22.1,31.18Z"/><path class="cls-3" d="M163.92,170.26c-17.62-43-44.57-51.38-45.73-51.73l-1.4,4.74c.07,0,6.81,2.11,15.51,9.46,7.48,6.32,17.88,17.86,26.29,37.53Z"/><polygon class="cls-4" points="78.93 178.06 74.89 175.25 87.15 157.54 91.19 160.36 78.93 178.06"/><polygon class="cls-4" points="193.07 177.66 181.04 160.36 185.07 157.53 197.11 174.83 193.07 177.66"/><path class="cls-4" d="M154.65,211.54a26.85,26.85,0,0,0-38.08,0L101.05,196a48.75,48.75,0,0,1,69.12,0Z"/><path class="cls-3" d="M116.67,194.34l2.86-1.22a2.23,2.23,0,0,1,1.74-.15,1.39,1.39,0,0,1,.74.75v0a1.4,1.4,0,0,1-.33,1.61,1.49,1.49,0,0,1,1.69.89v0c.41,1-.12,1.88-1.45,2.44L119,199.93Zm3.42,1.17c.47-.2.67-.47.53-.8v0c-.13-.3-.44-.37-.9-.18l-1,.43.41,1Zm1.12,2c.47-.2.67-.5.53-.83h0c-.13-.31-.45-.4-1-.18l-1.18.5.44,1Z"/><path class="cls-3" d="M147.22,197.08l1.27-.72a3,3,0,0,0,1.58,1.37c.42.16.7.1.79-.14v0c.09-.23-.05-.44-.75-.9-1.11-.73-1.91-1.43-1.47-2.6h0c.4-1.06,1.52-1.51,2.88-1a3.86,3.86,0,0,1,2.05,1.64l-1.2.82a3,3,0,0,0-1.38-1.16c-.38-.15-.63-.05-.7.15h0c-.1.27.05.45.77.93,1.2.77,1.85,1.5,1.45,2.57h0c-.43,1.16-1.61,1.51-3,1A4.23,4.23,0,0,1,147.22,197.08Z"/><path class="cls-3" d="M134.77,190H133V188.5h5.31V190h-1.81v8.14h-1.68Z"/><polygon class="cls-3" points="142.38 195.43 141.3 193.5 143.23 192.41 144.32 194.34 142.38 195.43"/><polygon class="cls-3" points="128.63 195.43 129.72 193.5 127.79 192.41 126.7 194.34 128.63 195.43"/></g></g></svg>