<svg xmlns="http://www.w3.org/2000/svg" viewBox="0 0 820.59 1334.85"><defs><style>.cls-1{fill:#e5e5e5;}.cls-2{fill:#fff;}.cls-3{fill:#7cae41;}.cls-4{fill:#228041;}.cls-5{fill:#dc9d41;}.cls-6{fill:#b1804e;}.cls-7{fill:#aa5841;}.cls-8{fill:#ff5841;}.cls-9{fill:red;}.cls-10,.cls-11,.cls-18,.cls-19{font-size:24px;fill:#ababab;font-family:Montserrat-Black, Montserrat Black;font-weight:800;}.cls-10{letter-spacing:0.12em;}.cls-11{letter-spacing:0.12em;}.cls-12{fill:#2b2b2b;}.cls-13{fill:#ffea41;}.cls-14{fill:#e9c424;}.cls-15{fill:#3f8e00;}.cls-16{fill:#802600;}.cls-17{fill:#b2a792;}.cls-18{letter-spacing:0.1em;}.cls-19{letter-spacing:0.1em;}.cls-20{fill:#c8c8c8;}.cls-21{fill:#aae5e5;}.cls-22{fill:#565656;}.cls-23{fill:#8ab1c8;}.cls-24{fill:#e53910;}.cls-25{fill:#746163;}.cls-26{fill:#40a1a7;}</style></defs><g id="Réteg_2" data-name="Réteg 2"><g id="Layer_1" data-name="Layer 1"><path class="cls-1" d="M654.76,179.92c-29.73,0-57.71-2.69-78.81-7.59-23.46-5.45-35.36-12.85-35.36-22s11.9-16.53,35.36-22c21.1-4.9,49.08-7.59,78.81-7.59s57.7,2.69,78.8,7.59c23.46,5.45,35.36,12.85,35.36,22s-11.9,16.54-35.36,22C712.46,177.23,684.48,179.92,654.76,179.92Zm0-51.15c-29.14,0-56.48,2.62-77,7.38-28.84,6.7-29.17,13.89-29.17,14.19s.33,7.5,29.17,14.2c20.52,4.76,47.86,7.38,77,7.38s56.47-2.62,77-7.38c28.84-6.7,29.17-13.89,29.17-14.2s-.33-7.49-29.17-14.19C711.23,131.39,683.89,128.77,654.76,128.77Z"/><path class="cls-2" d="M736.25,150.32s2.26-22.49,23.33-25.68c0,0,9.67,19-12.29,39.16"/><path class="cls-3" d="M747.29,167.8a4,4,0,0,1-2.71-7c14.7-13.52,13.78-26.11,12.4-31.56-14.86,4.36-16.73,21.25-16.75,21.43a4,4,0,0,1-8-.8c.89-8.85,7.61-26.34,26.71-29.24l2.85-.43,1.31,2.57c.45.89,10.78,21.92-13.14,43.92A4,4,0,0,1,747.29,167.8Z"/><path class="cls-2" d="M694,136.58s19.64-40.69,21-42.75a4.81,4.81,0,0,1,6-2c1.61.54,2.79,3.4,1.89,5.28s-13.75,37.38-14.35,40.78"/><path class="cls-4" d="M708.55,141.89a3.68,3.68,0,0,1-.73-.07,4,4,0,0,1-3.21-4.59c.69-3.92,13.25-38.38,14.6-41.62a.29.29,0,0,0,0-.09c-.46,0-.6.17-.82.5-1.14,1.89-13.32,27-20.72,42.3a4,4,0,0,1-7.21-3.47c4.63-9.6,19.85-41.09,21.23-43.2a8.83,8.83,0,0,1,10.61-3.58,7.24,7.24,0,0,1,4.22,4.17,8,8,0,0,1,0,6.62c-1.1,2.46-13.4,36.63-14,39.77A4,4,0,0,1,708.55,141.89Zm10.74-46.47h0Z"/><path class="cls-2" d="M615.22,142.93s7.65-44.53,8.37-46.88a4.82,4.82,0,0,1,5.22-3.55c1.69.08,3.61,2.5,3.27,4.55s-2.91,39.73-2.55,43.16"/><path class="cls-4" d="M615.23,146.93a4,4,0,0,1-4-4.68c1.8-10.5,7.75-45,8.49-47.38A8.83,8.83,0,0,1,629,88.51a7.24,7.24,0,0,1,5.21,2.84A8.07,8.07,0,0,1,636,97.71c-.38,2.67-2.78,38.9-2.52,42.1a4,4,0,0,1-3.6,4.35,4,4,0,0,1-4.35-3.52c-.42-4,2.15-40.54,2.55-44l0-.09c-.46.08-.54.33-.66.7-.57,2.14-5.36,29.6-8.25,46.39A4,4,0,0,1,615.23,146.93Z"/><path class="cls-2" d="M710.25,140s2.26-22.49,23.33-25.69c0,0,9.67,19-12.29,39.16"/><path class="cls-3" d="M721.29,157.46a4,4,0,0,1-2.71-6.94C733.32,137,732.4,124.43,731,119c-14.86,4.35-16.74,21.25-16.76,21.43a4,4,0,0,1-8-.8c.89-8.85,7.62-26.34,26.71-29.24l2.85-.43,1.31,2.57c.45.88,10.78,21.92-13.14,43.92A4,4,0,0,1,721.29,157.46Z"/><path class="cls-2" d="M721.53,148.58s2.26-22.49,23.33-25.69c0,0,9.67,19-12.29,39.16"/><path class="cls-3" d="M732.57,166.05a4,4,0,0,1-2.71-6.94c14.7-13.52,13.78-26.11,12.41-31.56-14.87,4.36-16.74,21.25-16.76,21.43a4,4,0,0,1-8-.8c.89-8.85,7.61-26.35,26.71-29.24l2.85-.43,1.31,2.57c.45.88,10.78,21.92-13.14,43.92A4,4,0,0,1,732.57,166.05Z"/><path class="cls-2" d="M612,142.84s-14.14-17.63-1.34-34.67c0,0,20.18,6.76,18.65,36.56"/><path class="cls-3" d="M629.28,148.73h-.2a4,4,0,0,1-3.79-4.2c1-20-8.42-28.3-13.25-31.22-7.53,13.39,2.59,26.46,3.06,27.05a4,4,0,0,1-6.25,5c-5.57-6.93-13-24.13-1.42-39.57l1.73-2.31,2.74.92c.94.32,23,8.1,21.38,40.55A4,4,0,0,1,629.28,148.73Z"/><path class="cls-2" d="M696.93,130.61s-10.44-6-10.26-21"/><path class="cls-4" d="M696.93,134.61a4,4,0,0,1-2-.53c-.51-.29-12.47-7.38-12.26-24.56a4,4,0,0,1,8,.1c-.15,12.54,8.17,17.48,8.26,17.53a4,4,0,0,1-2,7.46Z"/><path class="cls-2" d="M701.53,121.11s-8.6-2.77-6.28-17.26"/><path class="cls-4" d="M701.53,125.11a4,4,0,0,1-1.22-.19c-.49-.16-11.84-4-9-21.71a4,4,0,1,1,7.89,1.27c-1.73,10.8,3.51,12.81,3.56,12.82a4,4,0,0,1-1.23,7.81Z"/><path class="cls-2" d="M633.48,176.25h48a39.45,39.45,0,1,0-48,0Z"/><path class="cls-5" d="M627.39,176.25h13.46a35.44,35.44,0,1,1,33.28,0h13.45a43.45,43.45,0,1,0-60.19,0Z"/><path class="cls-2" d="M633.48,176.25h48a39.45,39.45,0,1,0-48,0Z"/><path class="cls-5" d="M627.39,176.25h13.46a35.44,35.44,0,1,1,33.28,0h13.45a43.45,43.45,0,1,0-60.19,0Z"/><line class="cls-2" x1="658.62" y1="118.51" x2="673.43" y2="4.48"/><rect class="cls-6" x="604.53" y="57.5" width="122.99" height="8" transform="translate(519.26 714.06) rotate(-82.6)"/><path class="cls-2" d="M684,145a26.49,26.49,0,1,1-26.49-26.5A26.48,26.48,0,0,1,684,145Z"/><path class="cls-5" d="M657.49,175.46A30.49,30.49,0,1,1,688,145,30.52,30.52,0,0,1,657.49,175.46Zm0-53A22.49,22.49,0,1,0,680,145,22.52,22.52,0,0,0,657.49,122.48Z"/><line class="cls-2" x1="661.62" y1="131.38" x2="689.8" y2="16.02"/><rect class="cls-6" x="612.34" y="69.7" width="126.75" height="8" transform="translate(443.77 712.62) rotate(-76.27)"/><path class="cls-2" d="M671.08,145a13.6,13.6,0,1,1-13.59-13.6A13.6,13.6,0,0,1,671.08,145Z"/><path class="cls-5" d="M657.49,162.57A17.6,17.6,0,1,1,675.08,145,17.62,17.62,0,0,1,657.49,162.57Zm0-27.19a9.6,9.6,0,1,0,9.59,9.6A9.61,9.61,0,0,0,657.49,135.38Z"/><path class="cls-2" d="M678.32,162.19c0,7.51-9,13.6-20.16,13.6S638,169.7,638,162.19s9-13.59,20.17-13.59S678.32,154.68,678.32,162.19Z"/><path class="cls-5" d="M643.48,176.25h29.35c5.8-3.19,9.49-8.25,9.49-14.06,0-9.86-10.61-17.59-24.16-17.59S634,152.33,634,162.19C634,168,637.68,173.06,643.48,176.25Zm14.68-23.65c8.61,0,16.16,4.48,16.16,9.59s-7.55,9.6-16.16,9.6S642,167.3,642,162.19,649.54,152.6,658.16,152.6Z"/><path class="cls-2" d="M692.2,176.85c8.92-.33,17.9-2.34,26.7-3.8,3.15-.52,6.32-1.08,9.45-1.81,1.23-.54,2.47-1.07,3.71-1.59a39.45,39.45,0,0,0-78.13,7.72c0,.42,0,.84,0,1.26C665.46,173.94,680.27,177.3,692.2,176.85Z"/><path class="cls-5" d="M653.83,178.68a28.85,28.85,0,0,1,4.1-1.33,35.44,35.44,0,0,1,70.35-6.1h.07c2.49-1.08,5-2.15,7.46-3.13a43.44,43.44,0,0,0-85.88,9.26c0,.44,0,.88,0,1.32Z"/><path class="cls-2" d="M692.2,176.85c8.92-.33,17.9-2.34,26.7-3.8,3.15-.52,6.32-1.08,9.45-1.81,1.23-.54,2.47-1.07,3.71-1.59a39.45,39.45,0,0,0-78.13,7.72c0,.42,0,.84,0,1.26C665.46,173.94,680.27,177.3,692.2,176.85Z"/><path class="cls-5" d="M653.83,178.68a28.85,28.85,0,0,1,4.1-1.33,35.44,35.44,0,0,1,70.35-6.1h.07c2.49-1.08,5-2.15,7.46-3.13a43.44,43.44,0,0,0-85.88,9.26c0,.44,0,.88,0,1.32Z"/><path class="cls-2" d="M692.2,176.85c8.92-.33,17.9-2.34,26.7-3.8l.59-.1a26.49,26.49,0,0,0-52.58,3.22C675.43,175.83,684.42,177.14,692.2,176.85Z"/><path class="cls-5" d="M670.92,176.11a22.49,22.49,0,0,1,44.63-2.48l3.35-.58c1.51-.25,3-.51,4.53-.79a30.48,30.48,0,0,0-60.52,4.2A64.2,64.2,0,0,1,670.92,176.11Z"/><path class="cls-2" d="M692.2,176.85a114.81,114.81,0,0,0,14.58-1.67,13.58,13.58,0,0,0-27,1.3C684.11,176.74,688.31,177,692.2,176.85Z"/><path class="cls-5" d="M683.81,176.71a9.58,9.58,0,0,1,19-.91c2.63-.39,5.26-.84,7.88-1.31a17.57,17.57,0,0,0-34.87,1.78C678.52,176.4,681.2,176.57,683.81,176.71Z"/><path class="cls-5" d="M690.09,176.89a3.32,3.32,0,0,1,6.5-.34l1.36-.13a4.66,4.66,0,0,0-9.2.46Z"/><path class="cls-2" d="M671.31,177.94a39.44,39.44,0,0,0-39-33.72L666,177.94Z"/><path class="cls-5" d="M632.29,148.22a35.49,35.49,0,0,1,35,29.72h8.08a43.49,43.49,0,0,0-43.05-37.72,4,4,0,0,0,0,8Z"/><path class="cls-2" d="M671.31,177.94a39.44,39.44,0,0,0-39-33.72L666,177.94Z"/><path class="cls-5" d="M632.29,148.22a35.49,35.49,0,0,1,35,29.72h8.08a43.49,43.49,0,0,0-43.05-37.72,4,4,0,0,0,0,8Z"/><path class="cls-2" d="M658.15,177.94a26.5,26.5,0,0,0-25.86-20.77l20.77,20.77Z"/><path class="cls-5" d="M632.29,161.17A22.53,22.53,0,0,1,654,177.94h8.19a30.53,30.53,0,0,0-29.94-24.77,4,4,0,0,0,0,8Z"/><path class="cls-2" d="M649.08,177.94a15,15,0,0,0-13.32-8.16l8.17,8.16Z"/><path class="cls-7" d="M635.76,173.78a11,11,0,0,1,8.59,4.16h9.09a19,19,0,0,0-17.68-12.16,4,4,0,0,0,0,8Z"/><path class="cls-2" d="M580.13,131.35c8.42-11.82,7.87-11.07,10.82-16.6l27.55,16.46c-7.94,21.29-7.89,21.15-14.67,39.35"/><path class="cls-8" d="M607.58,172l-7.5-2.8.76-2c5.71-15.32,6.23-16.74,12.74-34.2l-21.1-12.6c-1.51,2.68-3,4.8-9.09,13.34L576.87,129c7.71-10.83,7.71-10.83,10-15.14l2.52-4.73,34,20.32-1.17,3.12c-7.63,20.47-7.88,21.14-13.9,37.32Z"/><path class="cls-2" d="M550.12,155.53s6.44-17.18,21.11-28.62L597.7,143s-8.22,14.31-8.58,26.48"/><path class="cls-8" d="M593.12,169.6l-8-.23c.28-9.39,4.71-19.66,7.3-24.89L571.58,131.8c-12.09,10.52-17.66,25-17.72,25.14l-7.48-2.81c.27-.74,7-18.37,22.39-30.37l2.18-1.7,32.17,19.56-2,3.39C601.1,145.14,593.44,158.61,593.12,169.6Z"/><path class="cls-1" d="M654.76,179.92c-29.73,0-57.71-2.69-78.81-7.59-23.46-5.45-35.36-12.85-35.36-22h8c0,.31.33,7.5,29.17,14.2,20.52,4.76,47.86,7.38,77,7.38s56.47-2.62,77-7.38c28.84-6.7,29.17-13.89,29.17-14.2h8c0,9.14-11.9,16.54-35.36,22C712.46,177.23,684.48,179.92,654.76,179.92Z"/><path class="cls-2" d="M625,157.91a6.5,6.5,0,1,1-6.5-6.49A6.5,6.5,0,0,1,625,157.91Z"/><path class="cls-7" d="M618.48,168.41a10.5,10.5,0,1,1,10.5-10.5A10.5,10.5,0,0,1,618.48,168.41Zm0-13a2.5,2.5,0,1,0,2.5,2.49A2.5,2.5,0,0,0,618.48,155.42Z"/><path class="cls-2" d="M633.45,147.09A6.5,6.5,0,1,1,627,140.6,6.49,6.49,0,0,1,633.45,147.09Z"/><path class="cls-7" d="M627,157.59a10.5,10.5,0,1,1,10.49-10.5A10.51,10.51,0,0,1,627,157.59Zm0-13a2.5,2.5,0,1,0,2.49,2.49A2.5,2.5,0,0,0,627,144.6Z"/><path class="cls-2" d="M640,160.08a6.5,6.5,0,1,1-6.5-6.49A6.5,6.5,0,0,1,640,160.08Z"/><path class="cls-7" d="M633.45,170.58a10.5,10.5,0,1,1,10.5-10.5A10.51,10.51,0,0,1,633.45,170.58Zm0-13a2.5,2.5,0,1,0,2.5,2.49A2.5,2.5,0,0,0,633.45,157.59Z"/><path class="cls-2" d="M647.57,149.26a6.5,6.5,0,1,1-6.49-6.5A6.49,6.49,0,0,1,647.57,149.26Z"/><path class="cls-7" d="M641.08,159.75a10.5,10.5,0,1,1,10.49-10.49A10.51,10.51,0,0,1,641.08,159.75Zm0-13a2.5,2.5,0,1,0,2.49,2.5A2.5,2.5,0,0,0,641.08,146.76Z"/><path class="cls-2" d="M664.74,170.16a6.5,6.5,0,1,1-6.49-6.5A6.49,6.49,0,0,1,664.74,170.16Z"/><path class="cls-7" d="M658.25,180.65a10.5,10.5,0,1,1,10.49-10.49A10.5,10.5,0,0,1,658.25,180.65Zm0-13a2.5,2.5,0,1,0,2.49,2.5A2.5,2.5,0,0,0,658.25,167.66Z"/><path class="cls-2" d="M651.75,166.58a6.5,6.5,0,1,1-6.49-6.5A6.49,6.49,0,0,1,651.75,166.58Z"/><path class="cls-7" d="M645.26,177.07a10.5,10.5,0,1,1,10.49-10.49A10.51,10.51,0,0,1,645.26,177.07Zm0-13a2.5,2.5,0,1,0,2.49,2.5A2.5,2.5,0,0,0,645.26,164.08Z"/><path class="cls-2" d="M630.29,170.32a6.5,6.5,0,1,1-6.49-6.5A6.49,6.49,0,0,1,630.29,170.32Z"/><path class="cls-7" d="M623.8,180.81a10.5,10.5,0,1,1,10.49-10.49A10.5,10.5,0,0,1,623.8,180.81Zm0-13a2.5,2.5,0,1,0,2.49,2.5A2.5,2.5,0,0,0,623.8,167.82Z"/><path class="cls-2" d="M616.69,168.06a3.65,3.65,0,1,1-3.65-3.65A3.65,3.65,0,0,1,616.69,168.06Z"/><path class="cls-7" d="M613,175.71a7.65,7.65,0,1,1,7.65-7.65A7.66,7.66,0,0,1,613,175.71Zm0-8a.35.35,0,1,0,0,.7.35.35,0,0,0,0-.7Z"/><path class="cls-1" d="M654.76,265.26a114.31,114.31,0,0,1-114.17-114.2h8a106.17,106.17,0,1,0,212.33,0h8A114.31,114.31,0,0,1,654.76,265.26Z"/><path class="cls-2" d="M717.05,165.49s4.26,6.84,2.81,18.17A24.11,24.11,0,0,0,725,202.14"/><path class="cls-5" d="M725,206.14a4,4,0,0,1-2.92-1.28,28.13,28.13,0,0,1-6.2-21.71c1.22-9.61-2.12-15.34-2.26-15.58a4,4,0,0,1,6.81-4.2c.21.33,5,8.21,3.38,20.8A20.13,20.13,0,0,0,728,199.45a4,4,0,0,1-3,6.69Z"/><rect class="cls-9" x="394.17" y="178.83" width="50" height="12"/><rect class="cls-9" x="394.17" y="158.82" width="50" height="12"/><text class="cls-10" transform="translate(582.17 348) scale(0.96 1)">RAMEN SOUP</text><text class="cls-11" transform="translate(85.61 348) scale(0.96 1)">GERMKNÖDL</text><path class="cls-12" d="M274.37,183.25a3,3,0,0,1-1.12-.22l-1.25-.5a3,3,0,1,1,2.23-5.57l1.25.5a3,3,0,0,1-1.11,5.79Z"/><path class="cls-1" d="M161,235.44c-69.15,0-142.65-13.27-142.65-37.87S91.81,159.71,161,159.71,303.62,173,303.62,197.57,230.12,235.44,161,235.44Zm0-68.53c-36.86,0-71.47,3.53-97.46,9.93-28,6.9-38,15.24-38,20.73s10,13.83,38,20.73c26,6.41,60.6,9.93,97.46,9.93s71.48-3.52,97.47-9.93c28-6.9,38-15.23,38-20.73s-10-13.83-38-20.73C232.44,170.44,197.82,166.91,161,166.91Z"/><path class="cls-2" d="M161,223c-22.29,0-60-3.52-60-16.7s37.73-16.7,60-16.7,60,3.52,60,16.7S183.25,223,161,223Zm-52.78-16.7c1.56,3.38,20.66,9.5,52.78,9.5s51.23-6.12,52.78-9.5c-1.55-3.38-20.66-9.5-52.78-9.5S109.74,202.94,108.18,206.32Z"/><path class="cls-2" d="M266.27,195.1c0,13.51-46.36,24.47-103.55,24.47s-103.55-11-103.55-24.47,46.36-24.46,103.55-24.46S266.27,181.59,266.27,195.1Z"/><path class="cls-13" d="M162.72,223.17c-53.25,0-107.16-9.64-107.16-28.07S109.47,167,162.72,167s107.16,9.64,107.16,28.06S216,223.17,162.72,223.17Zm0-48.93c-27.39,0-53.1,2.51-72.39,7.07-21.76,5.14-27.56,11.09-27.56,13.79s5.8,8.66,27.56,13.79c19.29,4.56,45,7.07,72.39,7.07s53.1-2.51,72.4-7.07c21.75-5.13,27.55-11.08,27.55-13.79s-5.8-8.65-27.55-13.79C215.82,176.75,190.11,174.24,162.72,174.24Z"/><path class="cls-1" d="M160.12,251.25c-31.76,0-40.66-4-41.57-4.44l-1.16-.58-5.94-13.38,6.58-2.92,4.8,10.8c3,.93,13.2,3.32,37.29,3.32,24.25,0,34.38-2.42,37.39-3.35l4.78-9.56,6.44,3.22-6,11.91-1.07.54C200.79,247.26,191.89,251.25,160.12,251.25Z"/><path class="cls-2" d="M206.68,176c0,25-28.61,29.74-63.91,29.74S78.87,201,78.87,176s28.61-45.35,63.9-45.35S206.68,150.91,206.68,176Z"/><path class="cls-14" d="M142.77,209.3c-33.38,0-67.5-4-67.5-33.34,0-27,30.28-49,67.5-49s67.51,22,67.51,49C210.28,205.34,176.15,209.3,142.77,209.3Zm0-75.09c-33.25,0-60.3,18.73-60.3,41.75,0,18.56,17.47,26.14,60.3,26.14s60.3-7.58,60.3-26.14C203.07,152.94,176,134.21,142.77,134.21Z"/><path class="cls-12" d="M133.61,142.32a3.59,3.59,0,0,1-2.55-1l-.9-.9a3.6,3.6,0,1,1,5.09-5.09l.9.9a3.6,3.6,0,0,1-2.54,6.14Z"/><path class="cls-12" d="M153.42,134.21h-.3a3.61,3.61,0,1,1,0-7.21h.3a3.61,3.61,0,0,1,0,7.21Z"/><path class="cls-12" d="M118.9,135.72a3.61,3.61,0,0,1-3.1-1.76l-.9-1.51a3.6,3.6,0,0,1,6.19-3.69l.9,1.52a3.59,3.59,0,0,1-1.25,4.93A3.53,3.53,0,0,1,118.9,135.72Z"/><path class="cls-12" d="M170.83,148.33a3.45,3.45,0,0,1-1.14-.19l-.9-.3a3.6,3.6,0,1,1,2.27-6.83l.9.3a3.6,3.6,0,0,1-1.13,7Z"/><path class="cls-12" d="M157,158.53a3.57,3.57,0,0,1-2.54-1l-1.73-1.71a3.6,3.6,0,0,1,5.07-5.12l1.73,1.71a3.6,3.6,0,0,1-2.53,6.16Z"/><path class="cls-12" d="M118,157.68h-1.5a3.61,3.61,0,1,1,0-7.21H118a3.61,3.61,0,0,1,0,7.21Z"/><path class="cls-12" d="M135.11,173.84a3.61,3.61,0,0,1-3.61-3.6v-2.09a3.61,3.61,0,0,1,7.21,0v2.09A3.6,3.6,0,0,1,135.11,173.84Z"/><path class="cls-12" d="M199.12,175.34a3.6,3.6,0,0,1-3.6-3.6v-1.5a3.6,3.6,0,1,1,7.2,0v1.5A3.6,3.6,0,0,1,199.12,175.34Z"/><path class="cls-12" d="M274.94,183.25a3,3,0,0,1-1.12-.22l-1.25-.5A3,3,0,1,1,274.8,177l1.25.5a3,3,0,0,1-1.11,5.79Z"/><path class="cls-12" d="M140.21,134.21a3.6,3.6,0,0,1-3.6-3.6v-1.79a3.6,3.6,0,1,1,7.2,0v1.79A3.6,3.6,0,0,1,140.21,134.21Z"/><path class="cls-12" d="M177.37,141.42a3.52,3.52,0,0,1-1.45-.3l-2-.89a3.6,3.6,0,1,1,2.89-6.6l2,.89a3.6,3.6,0,0,1-1.44,6.9Z"/><path class="cls-12" d="M106,165.14a3.61,3.61,0,0,1-3.6-3.61v-.9a3.6,3.6,0,0,1,7.2,0v.9A3.61,3.61,0,0,1,106,165.14Z"/><path class="cls-12" d="M84.07,161.61A3.61,3.61,0,0,1,81,156.12l.33-.54a3.6,3.6,0,0,1,6.14,3.77l-.34.54A3.59,3.59,0,0,1,84.07,161.61Z"/><path class="cls-12" d="M165.73,186.75a3.6,3.6,0,0,1-3.23-2l-.3-.6a3.6,3.6,0,0,1,6.44-3.23l.3.6a3.61,3.61,0,0,1-1.61,4.84A3.65,3.65,0,0,1,165.73,186.75Z"/><path class="cls-12" d="M265.69,202.75a3,3,0,0,1-3-3v-.5a3,3,0,0,1,6,0v.5A3,3,0,0,1,265.69,202.75Z"/><path class="cls-12" d="M94.88,216.16a3.6,3.6,0,0,1-3.56-3.09L91,211a3.6,3.6,0,1,1,7.13-1l.3,2.1a3.61,3.61,0,0,1-3.06,4.08A4.36,4.36,0,0,1,94.88,216.16Z"/><path class="cls-12" d="M92,152.23a3.65,3.65,0,0,1-1.53-.34l-1.9-.9a3.6,3.6,0,1,1,3.07-6.52l1.9.9A3.6,3.6,0,0,1,92,152.23Z"/><path class="cls-12" d="M106,150.23a3.52,3.52,0,0,1-1-.13l-1.45-.4a3.6,3.6,0,1,1,1.93-6.94l1.44.4a3.6,3.6,0,0,1-1,7.07Z"/><path class="cls-1" d="M23.53,520.87l-3.25-6.44c36.59-18.44,91.94-29,151.84-29,47.92,0,93.77,6.89,129.1,19.42l-2.41,6.79c-34.58-12.26-79.57-19-126.69-19C113.3,492.62,59.14,502.92,23.53,520.87Z"/><path class="cls-1" d="M801.25,525.87c-35.63-17.95-89.79-28.25-148.6-28.25-47.12,0-92.11,6.75-126.69,19l-2.41-6.79c35.33-12.52,81.18-19.42,129.1-19.42,59.9,0,115.24,10.57,151.84,29Z"/><rect class="cls-9" x="394.17" y="495" width="50" height="12"/><rect class="cls-9" x="394.17" y="475" width="50" height="12"/><text class="cls-11" transform="translate(624.99 664.17) scale(0.96 1)">BIRCH</text><text class="cls-11" transform="translate(94.14 659.17) scale(0.96 1)">PINE TREES</text><polygon class="cls-15" points="114.23 523.88 84.12 491.61 54.01 523.88 48.16 518.42 84.12 479.88 120.08 518.42 114.23 523.88"/><polygon class="cls-15" points="114.23 545.27 84.12 513 54.01 545.27 48.16 539.81 84.12 501.28 120.08 539.81 114.23 545.27"/><polygon class="cls-15" points="161.73 479.75 131.62 447.48 101.51 479.75 95.66 474.29 131.62 435.75 167.58 474.29 161.73 479.75"/><polygon class="cls-15" points="161.73 501.14 131.62 468.87 101.51 501.14 95.66 495.68 131.62 457.15 167.58 495.68 161.73 501.14"/><polygon class="cls-15" points="247.24 469.27 217.12 437 187.01 469.27 181.16 463.81 217.12 425.27 253.08 463.81 247.24 469.27"/><polygon class="cls-15" points="247.24 490.66 217.12 458.39 187.01 490.66 181.16 485.2 217.12 446.66 253.08 485.2 247.24 490.66"/><polygon class="cls-15" points="284.74 574.25 254.62 541.98 224.51 574.25 218.66 568.8 254.62 530.26 290.58 568.8 284.74 574.25"/><polygon class="cls-15" points="284.74 595.65 254.62 563.38 224.51 595.65 218.66 590.19 254.62 551.65 290.58 590.19 284.74 595.65"/><rect class="cls-16" x="80.12" y="469.01" width="8" height="90"/><rect class="cls-16" x="127.62" y="424.48" width="8" height="91.54"/><rect class="cls-16" x="250.62" y="519.95" width="8" height="90.06"/><rect class="cls-17" x="587.45" y="435.96" width="8" height="90.06"/><rect class="cls-17" x="677.12" y="477.62" width="8" height="90.06"/><rect class="cls-17" x="738.45" y="436.99" width="8" height="90.06"/><rect class="cls-17" x="631.12" y="524.96" width="8" height="90.06"/><rect class="cls-16" x="213.12" y="415.51" width="8" height="86.86"/><polygon class="cls-15" points="114.23 502.49 84.12 470.22 54.01 502.49 48.16 497.03 84.12 458.49 120.08 497.03 114.23 502.49"/><polygon class="cls-15" points="161.73 458.36 131.62 426.09 101.51 458.36 95.66 452.9 131.62 414.36 167.58 452.9 161.73 458.36"/><polygon class="cls-15" points="247.24 447.87 217.12 415.6 187.01 447.87 181.16 442.42 217.12 403.88 253.08 442.42 247.24 447.87"/><polygon class="cls-15" points="284.74 552.86 254.62 520.59 224.51 552.86 218.66 547.4 254.62 508.86 290.58 547.4 284.74 552.86"/><path class="cls-2" d="M616,428.55a25.41,25.41,0,1,1-32-16.32A25.42,25.42,0,0,1,616,428.55Z"/><path class="cls-1" d="M591.85,465.42a29,29,0,1,1,27.57-38h0a29,29,0,0,1-27.57,38Zm0-50.84a21.57,21.57,0,0,0-6.76,1.08,21.65,21.65,0,1,0,6.76-1.08Z"/><path class="cls-2" d="M710.8,479.72a31.21,31.21,0,1,1-39.32-20A31.21,31.21,0,0,1,710.8,479.72Z"/><path class="cls-1" d="M681.08,524.19a34.82,34.82,0,1,1,33.15-45.58h0a34.86,34.86,0,0,1-33.15,45.58Zm0-62.43a27.6,27.6,0,1,0,26.28,19.08h0A27.66,27.66,0,0,0,681.1,461.76Z"/><path class="cls-2" d="M621.31,460.27A17.35,17.35,0,1,1,604,442.92,17.34,17.34,0,0,1,621.31,460.27Z"/><path class="cls-1" d="M604,481.22a21,21,0,1,1,20.94-21A21,21,0,0,1,604,481.22Zm0-34.69a13.75,13.75,0,1,0,13.74,13.74A13.76,13.76,0,0,0,604,446.53Z"/><path class="cls-2" d="M652.47,531.27a17.35,17.35,0,1,1-17.35-17.35A17.35,17.35,0,0,1,652.47,531.27Z"/><path class="cls-1" d="M635.12,552.22a21,21,0,1,1,21-21A21,21,0,0,1,635.12,552.22Zm0-34.69a13.75,13.75,0,1,0,13.74,13.74A13.76,13.76,0,0,0,635.12,517.53Z"/><path class="cls-2" d="M767.41,442.92a22.1,22.1,0,1,1-22.1-22.09A22.09,22.09,0,0,1,767.41,442.92Z"/><path class="cls-1" d="M745.31,468.62a25.7,25.7,0,1,1,25.7-25.7A25.72,25.72,0,0,1,745.31,468.62Zm0-44.19a18.5,18.5,0,1,0,18.5,18.49A18.52,18.52,0,0,0,745.31,424.43Z"/><path class="cls-2" d="M582.91,454.92A13.88,13.88,0,1,1,565.42,446,13.88,13.88,0,0,1,582.91,454.92Z"/><path class="cls-1" d="M569.69,476.7a17.49,17.49,0,1,1,16.65-22.89h0a17.52,17.52,0,0,1-16.65,22.89Zm0-27.77a10,10,0,0,0-3.16.51,10.24,10.24,0,1,0,3.16-.51Z"/><path class="cls-2" d="M755.65,463.93A13.88,13.88,0,1,1,738.17,455,13.88,13.88,0,0,1,755.65,463.93Z"/><path class="cls-1" d="M742.47,485.7a17.53,17.53,0,1,1,5.38-.86A17.52,17.52,0,0,1,742.47,485.7Zm0-27.76a10.28,10.28,0,1,0,9.16,14.94,10.18,10.18,0,0,0,.62-7.84A10.31,10.31,0,0,0,742.45,457.94Z"/><rect class="cls-17" x="660.9" y="487.47" width="8" height="15.42" transform="translate(-161.73 558.27) rotate(-41.04)"/><rect class="cls-17" x="551.83" y="445.45" width="8" height="15.42" transform="translate(-81.48 782) rotate(-66.48)"/><rect class="cls-17" x="756.09" y="441.14" width="20.27" height="8" transform="translate(-78.62 177.78) rotate(-12.59)"/><rect class="cls-17" x="699.67" y="467.8" width="15.34" height="8" transform="translate(-138.34 559.91) rotate(-39.65)"/><rect class="cls-9" x="394.17" y="811.17" width="50" height="12"/><rect class="cls-9" x="394.17" y="791.17" width="50" height="12"/><text class="cls-18" transform="translate(501.37 980.35) scale(0.96 1)">VOLCANOES OF HOKKAIDO </text><text class="cls-19" transform="translate(46.92 980.34) scale(0.96 1)">PEAKS OF THE ALPS</text><rect class="cls-20" x="33.91" y="845.18" width="73.05" height="8" transform="translate(-700.21 485.62) rotate(-60)"/><polygon class="cls-20" points="249.45 882.82 218.7 829.55 204.75 853.72 185.02 819.55 191.95 815.55 204.75 837.72 218.7 813.55 256.38 878.82 249.45 882.82"/><polygon class="cls-20" points="249.45 882.82 218.7 829.55 204.75 853.72 183.27 816.52 194.92 796.34 201.85 800.34 192.51 816.52 204.75 837.72 218.7 813.55 256.38 878.82 249.45 882.82"/><rect class="cls-20" x="262.03" y="791.96" width="8" height="95.23" transform="translate(-384.14 245.49) rotate(-30)"/><path class="cls-21" d="M154.13,831.27c-29.77,0-37-10.44-37.76-11.63l-1.24-2,39-67.56,39,67.56-1.24,2C191.17,820.83,183.91,831.27,154.13,831.27Zm-29.33-14.4c3.12,2.3,11.23,6.4,29.33,6.4s26.22-4.1,29.34-6.4l-29.34-50.82Z"/><path class="cls-21" d="M104.24,827.77c-15.45,0-18.93-7.89-19.27-8.79l-.69-1.78,20-34.57,20,34.57-.68,1.78C123.17,819.88,119.7,827.77,104.24,827.77ZM93.55,817.16c1.47,1.12,4.58,2.61,10.69,2.61s9.22-1.49,10.7-2.61l-10.7-18.53Z"/><path class="cls-21" d="M219.1,812.32c-9.34,0-16.26-2-20.58-6.06a12.07,12.07,0,0,1-4.12-7.63l-.09-1.23,26-45,26.27,45.48-.53,1.68C245.88,800.06,241.77,812.32,219.1,812.32Zm-16.4-13.46c1.22,2.29,5.63,5.46,16.4,5.46,12.12,0,16.84-3.85,18.52-6l-17.32-30Z"/><polygon class="cls-20" points="139.67 898.28 119.78 863.84 99.9 898.28 92.97 894.28 119.78 847.84 146.6 894.28 139.67 898.28"/><path class="cls-20" d="M791.22,872.73c-16-3.4-38.19-10.3-53.35-23.86-16.35-14.63-23.57-22.76-33.31-36.83a13.19,13.19,0,0,1-3.47,4.41,12.83,12.83,0,0,1-7.27,2.83c-2.7,5.35-9.59,16.76-19.35,16.76s-17.67-10.62-20.73-15.29H631.05c-7.89,0-12.72-7.08-15.32-12.7-9.1,10.16-21.25,23.63-33.7,37.12-12,13-32.44,21.47-60.77,25.2l-1-7.93c18.17-2.39,42.63-8.27,55.94-22.7,14.57-15.78,28.74-31.55,38.05-42l4.41-4.94,2.45,6.6c.9,3.46,4.66,13.34,10,13.34h27.23l1.15,2c2,3.45,9,13.29,15,13.29,5.31,0,11.16-9.7,13.16-14.4l1.28-3,3.19.64h0a5.47,5.47,0,0,0,4-1.06c1.64-1.38,2.5-4.23,2.5-8.26V788.71l7.33,11c12.4,18.67,18.8,26.6,37.31,43.15,10.8,9.67,28.44,17.48,49.67,22Z"/><path class="cls-20" d="M727,868.33c-18.59-9.07-38.44-49.66-39.28-51.39l7.2-3.49c5.36,11,22.21,41.17,35.59,47.69Z"/><path class="cls-20" d="M649.38,856.92l-7.68-2.22c4-13.79,8.07-38,8.11-38.26l7.89,1.33C657.53,818.78,653.49,842.69,649.38,856.92Z"/><path class="cls-21" d="M674.47,836c-9.66,0-17.67-10.62-20.73-15.29H631.05c-12,0-16.93-16.37-17.68-19.12l-.78-2.08,1.61-1.8c8.58-9.62,14.19-16,14.25-16.08l1.19-1.36h20.8c2.22-8.08,5.91-16.42,11.68-16.42.33,0,.89-.07,1.48-.14,6.06-.78,17.34-2.23,34.87,24.67,2.74,4.2,5.18,7.94,7.43,11.33l.67,1V802c0,6.64-1.84,11.52-5.48,14.49a12.83,12.83,0,0,1-7.27,2.83C691.12,824.63,684.23,836,674.47,836Zm-52.8-34.65c1.48,4.27,4.87,11.36,9.38,11.36h27.23l1.15,2c2,3.45,9,13.29,15,13.29,5.31,0,11.16-9.7,13.16-14.4l1.28-3,3.19.64h0a5.47,5.47,0,0,0,4-1.06c1.47-1.24,2.32-3.68,2.47-7.09-2.07-3.13-4.3-6.55-6.77-10.34-14.79-22.7-22.83-21.66-27.16-21.11-.64.09-1.26.16-1.89.2-1.47,1.43-3.91,7.56-5.27,13.35l-.73,3.08H633.26C631.34,790.5,627.21,795.17,621.67,801.39Z"/><rect class="cls-20" x="584.19" y="880.63" width="56.89" height="8"/><rect class="cls-20" x="662.86" y="897.96" width="68.52" height="8"/><rect class="cls-9" x="394.17" y="1159.67" width="50" height="12"/><rect class="cls-9" x="394.17" y="1139.67" width="50" height="12"/><text class="cls-19" transform="translate(620.87 1328.85) scale(0.96 1)">ONSEN</text><text class="cls-19" transform="translate(120.61 1328.85) scale(0.96 1)">SAUNA</text><path class="cls-1" d="M3.6,1227.3,0,1220.16c39.56-19.94,99.4-31.38,164.16-31.38,51.81,0,101.38,7.46,139.58,21l-2.68,7.54c-37.36-13.24-86-20.54-136.9-20.54C100.61,1196.78,42.08,1207.91,3.6,1227.3Z"/><path class="cls-20" d="M811.59,1211.92c-38.8-18.77-97.48-28.93-161-27.91-50.92.82-99.41,8.91-136.56,22.75l-2.79-7.49c38-14.16,87.41-22.42,139.22-23.26,64.73-1.08,124.76,9.41,164.64,28.71Z"/><rect class="cls-2" x="87.42" y="1106.3" width="44.61" height="116.34"/><path class="cls-5" d="M136,1226.65H83.42V1102.3H136Zm-44.61-8H128V1110.3H91.42Z"/><rect class="cls-2" x="132.03" y="1106.3" width="101.81" height="116.34"/><path class="cls-5" d="M237.84,1226.65H128V1102.3H237.84Zm-101.81-8h93.81V1110.3H136Z"/><rect class="cls-22" x="103.63" y="1084.49" width="11.35" height="18.57"/><path class="cls-1" d="M109.31,1077.14a9.68,9.68,0,1,1,9.67-9.67A9.69,9.69,0,0,1,109.31,1077.14Zm0-11.35a1.68,1.68,0,1,0,1.67,1.68A1.68,1.68,0,0,0,109.31,1065.79Z"/><path class="cls-1" d="M120.12,1051.47a9.68,9.68,0,1,1,9.67-9.67A9.69,9.69,0,0,1,120.12,1051.47Zm0-11.35a1.68,1.68,0,1,0,1.67,1.68A1.68,1.68,0,0,0,120.12,1040.12Z"/><line class="cls-2" x1="101.47" y1="1158.89" x2="101.47" y2="1222.65"/><rect class="cls-5" x="97.47" y="1158.89" width="8" height="63.75"/><line class="cls-2" x1="117.14" y1="1158.89" x2="117.14" y2="1222.65"/><rect class="cls-5" x="113.14" y="1158.89" width="8" height="63.75"/><rect class="cls-2" x="101.47" y="1122.32" width="15.67" height="22.87"/><path class="cls-23" d="M121.14,1149.2H97.47v-30.88h23.67Zm-15.67-8h7.67v-14.88h-7.67Z"/><line class="cls-2" x1="132.03" y1="1106.3" x2="132.03" y2="1222.65"/><path class="cls-5" d="M132,1226.65a4,4,0,0,1-4-4V1106.3a4,4,0,0,1,8,0v116.35A4,4,0,0,1,132,1226.65Z"/><line class="cls-2" x1="146.91" y1="1158.89" x2="146.91" y2="1222.65"/><rect class="cls-5" x="142.91" y="1158.89" width="8" height="63.75"/><line class="cls-2" x1="161.8" y1="1158.89" x2="161.8" y2="1222.65"/><rect class="cls-5" x="157.8" y="1158.89" width="8" height="63.75"/><line class="cls-2" x1="176.69" y1="1158.89" x2="176.69" y2="1222.65"/><rect class="cls-5" x="172.69" y="1158.89" width="8" height="63.75"/><line class="cls-2" x1="191.57" y1="1106.3" x2="191.57" y2="1222.65"/><rect class="cls-5" x="187.57" y="1106.3" width="8" height="116.34"/><line class="cls-2" x1="206.46" y1="1180.87" x2="206.46" y2="1222.65"/><rect class="cls-5" x="202.46" y="1180.87" width="8" height="41.78"/><line class="cls-2" x1="221.34" y1="1106.3" x2="221.34" y2="1222.65"/><rect class="cls-5" x="217.34" y="1106.3" width="8" height="116.34"/><rect class="cls-2" x="146.91" y="1120.33" width="29.77" height="95.83"/><path class="cls-23" d="M180.69,1220.16H142.91V1116.33h37.78Zm-29.78-8h21.78v-87.83H150.91Z"/><line class="cls-2" x1="150.82" y1="1170.42" x2="173.16" y2="1170.42"/><rect class="cls-5" x="150.82" y="1166.42" width="22.34" height="8"/><line class="cls-2" x1="206.46" y1="1139.08" x2="206.46" y2="1165.02"/><rect class="cls-23" x="202.46" y="1139.08" width="8" height="25.94"/><path class="cls-24" d="M206.46,1177a8,8,0,1,1,8-8A8,8,0,0,1,206.46,1177Zm0-8Z"/><rect class="cls-24" x="202.46" y="1148.81" width="8" height="20.18"/><line class="cls-2" x1="206.46" y1="1104.14" x2="206.46" y2="1134.03"/><rect class="cls-5" x="202.46" y="1104.14" width="8" height="29.89"/><path class="cls-2" d="M601.42,1124.75a16.84,16.84,0,0,0-16.84,16.83v58.28h33.67v-58.28A16.84,16.84,0,0,0,601.42,1124.75Z"/><path class="cls-25" d="M622.25,1203.86H580.58v-62.28a20.84,20.84,0,0,1,41.67,0Zm-33.67-8h25.67v-54.28a12.84,12.84,0,0,0-25.67,0Z"/><path class="cls-2" d="M693,1162.14a11.57,11.57,0,0,0-11.57,11.57v27.14h23.14v-27.14A11.57,11.57,0,0,0,693,1162.14Z"/><path class="cls-25" d="M708.61,1204.85H677.47v-31.14a15.57,15.57,0,0,1,31.14,0Zm-23.14-8h15.14v-23.14a7.57,7.57,0,0,0-15.14,0Z"/><path class="cls-2" d="M731.23,1210.4c0,10.75-32.47,19.47-72.52,19.47s-72.52-8.72-72.52-19.47,32.47-19.47,72.52-19.47S731.23,1199.65,731.23,1210.4Z"/><path class="cls-26" d="M658.71,1233.87c-19.71,0-38.29-2.07-52.31-5.84-16.06-4.31-24.21-10.24-24.21-17.63s8.15-13.32,24.21-17.63c14-3.77,32.6-5.84,52.31-5.84S697,1189,711,1192.77c16.06,4.31,24.21,10.24,24.21,17.63S727.08,1223.72,711,1228C697,1231.8,678.42,1233.87,658.71,1233.87Zm0-38.94c-44.33,0-68.52,10.22-68.52,15.47s24.19,15.47,68.52,15.47,68.52-10.22,68.52-15.47S703,1194.93,658.71,1194.93Z"/><path class="cls-1" d="M663.5,1247.91v-8c22.17,0,43-2.85,58.53-8,20.44-6.79,22-14,22-16.06h8C752.05,1236.66,706.43,1247.91,663.5,1247.91Z"/><path class="cls-2" d="M584.58,1182a16.83,16.83,0,0,0-16.83,16.84V1227l33.67,8.53v-36.65A16.84,16.84,0,0,0,584.58,1182Z"/><path class="cls-25" d="M605.42,1240.65l-41.67-10.56v-31.23a20.84,20.84,0,1,1,41.67,0Zm-33.67-16.78,25.67,6.5v-31.51a12.84,12.84,0,1,0-25.67,0Z"/><path class="cls-2" d="M541.72,1225.19s49-5,79.26,22.33"/><path class="cls-20" d="M618.29,1250.49c-28.55-25.83-75.7-21.37-76.17-21.32l-.81-8c2.07-.22,51.13-4.91,82.35,23.35Z"/><line class="cls-2" x1="614.43" y1="1212.21" x2="625.92" y2="1212.21"/><rect class="cls-26" x="614.43" y="1208.21" width="11.49" height="8"/><path class="cls-2" d="M704.61,1149.54a11.19,11.19,0,1,1-11.19-11.19A11.19,11.19,0,0,1,704.61,1149.54Z"/><path class="cls-25" d="M693.42,1164.73a15.19,15.19,0,1,1,15.19-15.19A15.2,15.2,0,0,1,693.42,1164.73Zm0-22.38a7.19,7.19,0,1,0,7.19,7.19A7.2,7.2,0,0,0,693.42,1142.35Z"/><path class="cls-1" d="M641.49,1151.77h-8A23.69,23.69,0,0,1,636,1140.6a18.08,18.08,0,0,0,0-15.73,26,26,0,0,1,0-22.34,16,16,0,0,0,1.8-7.86h8a23.69,23.69,0,0,1-2.52,11.17,18.06,18.06,0,0,0,0,15.72,26,26,0,0,1,0,22.35A16,16,0,0,0,641.49,1151.77Z"/><path class="cls-1" d="M656.32,1156.37h-8a23.66,23.66,0,0,1,2.52-11.17,18,18,0,0,0,0-15.73,23.69,23.69,0,0,1-2.52-11.17h8a16,16,0,0,0,1.81,7.86,26,26,0,0,1,0,22.35A15.92,15.92,0,0,0,656.32,1156.37Z"/><path class="cls-1" d="M722.35,1137.33h-8a16,16,0,0,0-1.8-7.86,26,26,0,0,1,0-22.34,16,16,0,0,0,1.8-7.87h8a23.72,23.72,0,0,1-2.51,11.18,18,18,0,0,0,0,15.72A23.71,23.71,0,0,1,722.35,1137.33Z"/><path class="cls-1" d="M627.14,1093.59h-8a16.08,16.08,0,0,0-1.8-7.87,26,26,0,0,1,0-22.34,16.07,16.07,0,0,0,1.8-7.86h8a23.69,23.69,0,0,1-2.52,11.17,18.08,18.08,0,0,0,0,15.73A23.66,23.66,0,0,1,627.14,1093.59Z"/><line class="cls-2" x1="638.21" y1="1202.85" x2="649.7" y2="1202.85"/><rect class="cls-26" x="638.21" y="1198.85" width="11.49" height="8"/><line class="cls-2" x1="678.2" y1="1210.4" x2="689.69" y2="1210.4"/><rect class="cls-26" x="678.2" y="1206.4" width="11.49" height="8"/></g></g></svg>